<?xml version="1.0" encoding="UTF-8" standalone="no"?>
<!DOCTYPE svg PUBLIC "-//W3C//DTD SVG 1.1//EN" "http://www.w3.org/Graphics/SVG/1.1/DTD/svg11.dtd">
<svg width="100%" height="100%" viewBox="0 0 800 1040" version="1.1" xmlns="http://www.w3.org/2000/svg" xmlns:xlink="http://www.w3.org/1999/xlink" xml:space="preserve" xmlns:serif="http://www.serif.com/" style="fill-rule:evenodd;clip-rule:evenodd;stroke-linejoin:round;stroke-miterlimit:2;">
    <g transform="matrix(1,0,0,1.52205,0,0)">
        <rect x="0" y="0" width="800" height="693.33" style="fill:rgb(250,249,247);fill-rule:nonzero;"/>
    </g>
    <g transform="matrix(1,0,0,0.334381,0,692.244)">
        <rect x="0" y="0" width="800" height="1040" style="fill:rgb(179,76,112);fill-rule:nonzero;"/>
    </g>
    <g transform="matrix(1,0,0,1,-131.542,11.1645)">
        <g transform="matrix(0.923616,0,0,0.531124,27.2501,86.1747)">
            <rect x="171.925" y="172.47" width="427.914" height="4.922" style="fill:rgb(179,77,113);"/>
        </g>
        <g transform="matrix(1.18834,0,0,1.18834,-3.77368,-104.344)">
            <g transform="matrix(106.15,0,0,106.15,154.412,224.635)">
                <path d="M0.549,-0L0.057,-0L0.057,-0.057L0.105,-0.07L0.105,-0.629L0.045,-0.644L0.045,-0.697L0.303,-0.698L0.303,-0.652L0.215,-0.629L0.215,-0.076L0.461,-0.076L0.508,-0.179L0.578,-0.177L0.549,-0Z" style="fill:rgb(179,77,113);fill-rule:nonzero;"/>
            </g>
            <g transform="matrix(106.15,0,0,106.15,218.368,224.635)">
                <path d="M0.22,-0.666C0.206,-0.653 0.187,-0.647 0.163,-0.647C0.139,-0.647 0.12,-0.653 0.106,-0.665C0.092,-0.678 0.085,-0.696 0.085,-0.72C0.085,-0.744 0.092,-0.762 0.106,-0.775C0.12,-0.787 0.139,-0.794 0.163,-0.794C0.187,-0.794 0.206,-0.787 0.22,-0.775C0.234,-0.762 0.241,-0.744 0.242,-0.72C0.241,-0.696 0.234,-0.678 0.22,-0.666ZM0.224,-0.534L0.223,-0.423L0.223,-0.068L0.298,-0.045L0.298,-0L0.042,-0L0.042,-0.045L0.119,-0.068L0.117,-0.461L0.052,-0.466L0.054,-0.526L0.224,-0.534Z" style="fill:rgb(179,77,113);fill-rule:nonzero;"/>
            </g>
            <g transform="matrix(106.15,0,0,106.15,252.866,224.635)">
                <path d="M0.166,-0.482C0.178,-0.488 0.189,-0.494 0.199,-0.499C0.22,-0.51 0.238,-0.518 0.254,-0.525C0.27,-0.531 0.284,-0.535 0.297,-0.538C0.309,-0.541 0.321,-0.542 0.331,-0.542C0.378,-0.542 0.418,-0.532 0.45,-0.511C0.483,-0.49 0.507,-0.461 0.525,-0.423C0.542,-0.385 0.55,-0.34 0.55,-0.288C0.55,-0.235 0.544,-0.193 0.532,-0.162C0.515,-0.116 0.498,-0.084 0.482,-0.067C0.435,-0.019 0.377,0.005 0.308,0.006C0.164,0.011 0.083,-0.001 0.064,-0.031L0.063,-0.668C0.059,-0.671 0.051,-0.675 0.041,-0.68C0.03,-0.685 0.023,-0.689 0.02,-0.691C0.016,-0.692 0.008,-0.696 -0.005,-0.702L0.011,-0.76L0.154,-0.794L0.175,-0.794L0.166,-0.683L0.166,-0.482ZM0.166,-0.427L0.166,-0.197C0.166,-0.151 0.171,-0.122 0.18,-0.11C0.19,-0.098 0.204,-0.087 0.223,-0.077C0.242,-0.067 0.265,-0.062 0.293,-0.062C0.323,-0.062 0.349,-0.07 0.371,-0.086C0.393,-0.101 0.41,-0.125 0.421,-0.156C0.433,-0.187 0.439,-0.225 0.439,-0.271C0.439,-0.311 0.433,-0.344 0.421,-0.371C0.41,-0.397 0.393,-0.417 0.37,-0.431C0.347,-0.444 0.319,-0.451 0.286,-0.451C0.267,-0.451 0.248,-0.449 0.23,-0.446C0.212,-0.442 0.194,-0.437 0.177,-0.431C0.173,-0.429 0.17,-0.428 0.166,-0.427Z" style="fill:rgb(179,77,113);fill-rule:nonzero;"/>
            </g>
            <g transform="matrix(106.15,0,0,106.15,316.025,224.635)">
                <path d="M0.374,-0.54C0.402,-0.535 0.423,-0.52 0.439,-0.495C0.439,-0.495 0.432,-0.461 0.42,-0.393C0.411,-0.397 0.401,-0.401 0.389,-0.405C0.334,-0.421 0.286,-0.425 0.245,-0.416C0.235,-0.414 0.227,-0.412 0.221,-0.409C0.22,-0.408 0.218,-0.408 0.217,-0.407L0.217,-0.068L0.303,-0.045L0.303,-0L0.036,-0L0.036,-0.045L0.114,-0.068L0.116,-0.441L0.03,-0.448L0.03,-0.479L0.173,-0.544L0.192,-0.544L0.212,-0.456L0.3,-0.516C0.314,-0.525 0.327,-0.531 0.339,-0.535C0.354,-0.539 0.366,-0.541 0.374,-0.54Z" style="fill:rgb(179,77,113);fill-rule:nonzero;"/>
            </g>
            <g transform="matrix(106.15,0,0,106.15,362.572,224.635)">
                <path d="M0.293,-0.066C0.324,-0.066 0.351,-0.072 0.373,-0.085C0.395,-0.098 0.412,-0.119 0.423,-0.146C0.434,-0.174 0.44,-0.209 0.44,-0.252C0.44,-0.3 0.435,-0.339 0.425,-0.371C0.414,-0.402 0.399,-0.426 0.378,-0.442C0.357,-0.458 0.331,-0.466 0.299,-0.466C0.267,-0.466 0.241,-0.459 0.219,-0.446C0.197,-0.433 0.18,-0.413 0.169,-0.385C0.158,-0.357 0.152,-0.322 0.152,-0.279C0.152,-0.232 0.157,-0.192 0.168,-0.161C0.178,-0.129 0.193,-0.105 0.214,-0.089C0.235,-0.073 0.261,-0.066 0.293,-0.066ZM0.292,0.012C0.241,0.012 0.197,0 0.16,-0.023C0.123,-0.045 0.095,-0.077 0.075,-0.119C0.055,-0.16 0.045,-0.209 0.045,-0.264C0.045,-0.32 0.055,-0.368 0.077,-0.41C0.097,-0.452 0.127,-0.485 0.165,-0.508C0.203,-0.531 0.248,-0.542 0.3,-0.542C0.351,-0.542 0.395,-0.531 0.432,-0.508C0.469,-0.485 0.498,-0.453 0.518,-0.412C0.538,-0.371 0.548,-0.323 0.548,-0.268C0.548,-0.212 0.537,-0.163 0.516,-0.121C0.495,-0.079 0.465,-0.046 0.427,-0.023C0.389,-0 0.344,0.012 0.292,0.012Z" style="fill:rgb(179,77,113);fill-rule:nonzero;"/>
            </g>
            <g transform="matrix(106.15,0,0,106.15,424.935,224.635)">
                <path d="M0.376,-0.045L0.449,-0.067L0.449,-0.34C0.448,-0.362 0.445,-0.381 0.438,-0.395C0.431,-0.41 0.419,-0.42 0.404,-0.428C0.388,-0.435 0.367,-0.438 0.342,-0.438C0.319,-0.438 0.296,-0.435 0.273,-0.429C0.252,-0.424 0.233,-0.417 0.217,-0.409L0.217,-0.067L0.289,-0.045L0.289,-0L0.036,-0L0.036,-0.045L0.114,-0.068L0.115,-0.433C0.109,-0.437 0.093,-0.442 0.068,-0.448L0.03,-0.457L0.03,-0.479C0.03,-0.479 0.078,-0.501 0.172,-0.544L0.19,-0.544L0.21,-0.475C0.33,-0.555 0.431,-0.563 0.515,-0.498C0.539,-0.479 0.552,-0.435 0.552,-0.367L0.552,-0.068L0.63,-0.045L0.63,-0L0.376,-0L0.376,-0.045Z" style="fill:rgb(179,77,113);fill-rule:nonzero;"/>
            </g>
        </g>
        <g transform="matrix(1.11181,0,0,1.11181,14.9587,-24.6125)">
            <g transform="matrix(40.3923,0,0,40.3923,154.412,224.635)">
                <path d="M0.166,-0.482C0.178,-0.488 0.189,-0.494 0.199,-0.499C0.22,-0.51 0.238,-0.518 0.254,-0.525C0.27,-0.531 0.284,-0.535 0.297,-0.538C0.309,-0.541 0.321,-0.542 0.331,-0.542C0.378,-0.542 0.418,-0.532 0.45,-0.511C0.483,-0.49 0.507,-0.461 0.525,-0.423C0.542,-0.385 0.55,-0.34 0.55,-0.288C0.55,-0.235 0.544,-0.193 0.532,-0.162C0.515,-0.116 0.498,-0.084 0.482,-0.067C0.435,-0.019 0.377,0.005 0.308,0.006C0.164,0.011 0.083,-0.001 0.064,-0.031L0.063,-0.668C0.059,-0.671 0.051,-0.675 0.041,-0.68C0.03,-0.685 0.023,-0.689 0.02,-0.691C0.016,-0.692 0.008,-0.696 -0.005,-0.702L0.011,-0.76L0.154,-0.794L0.175,-0.794L0.166,-0.683L0.166,-0.482ZM0.166,-0.427L0.166,-0.197C0.166,-0.151 0.171,-0.122 0.18,-0.11C0.19,-0.098 0.204,-0.087 0.223,-0.077C0.242,-0.067 0.265,-0.062 0.293,-0.062C0.323,-0.062 0.349,-0.07 0.371,-0.086C0.393,-0.101 0.41,-0.125 0.421,-0.156C0.433,-0.187 0.439,-0.225 0.439,-0.271C0.439,-0.311 0.433,-0.344 0.421,-0.371C0.41,-0.397 0.393,-0.417 0.37,-0.431C0.347,-0.444 0.319,-0.451 0.286,-0.451C0.267,-0.451 0.248,-0.449 0.23,-0.446C0.212,-0.442 0.194,-0.437 0.177,-0.431C0.173,-0.429 0.17,-0.428 0.166,-0.427Z" style="fill:rgb(179,77,113);fill-rule:nonzero;"/>
            </g>
            <g transform="matrix(40.3923,0,0,40.3923,178.446,224.635)">
                <path d="M0.341,-0.27C0.309,-0.264 0.283,-0.258 0.262,-0.252C0.232,-0.243 0.209,-0.234 0.194,-0.225C0.178,-0.215 0.168,-0.204 0.163,-0.193C0.157,-0.181 0.155,-0.168 0.155,-0.153C0.155,-0.127 0.161,-0.108 0.175,-0.095C0.188,-0.082 0.209,-0.076 0.236,-0.076C0.256,-0.076 0.273,-0.08 0.289,-0.088C0.305,-0.096 0.317,-0.107 0.327,-0.121C0.336,-0.135 0.341,-0.15 0.341,-0.168L0.341,-0.27ZM0.339,-0.052C0.324,-0.039 0.313,-0.031 0.307,-0.028C0.301,-0.025 0.287,-0.017 0.266,-0.006C0.244,0.006 0.219,0.012 0.191,0.012C0.15,0.012 0.115,-0.002 0.084,-0.029C0.058,-0.051 0.045,-0.085 0.045,-0.131C0.045,-0.157 0.05,-0.18 0.059,-0.2C0.068,-0.221 0.085,-0.239 0.109,-0.256C0.133,-0.272 0.168,-0.287 0.215,-0.301C0.249,-0.311 0.291,-0.321 0.341,-0.331L0.341,-0.364C0.341,-0.4 0.333,-0.427 0.319,-0.445C0.304,-0.463 0.278,-0.472 0.241,-0.472C0.221,-0.472 0.205,-0.468 0.193,-0.461C0.186,-0.457 0.178,-0.448 0.169,-0.435C0.166,-0.431 0.162,-0.419 0.156,-0.401C0.152,-0.389 0.145,-0.381 0.134,-0.377C0.125,-0.373 0.114,-0.372 0.101,-0.372C0.083,-0.372 0.069,-0.375 0.06,-0.383C0.05,-0.391 0.046,-0.4 0.046,-0.412C0.046,-0.425 0.051,-0.438 0.063,-0.453C0.074,-0.468 0.09,-0.482 0.111,-0.495C0.131,-0.508 0.156,-0.519 0.184,-0.528C0.212,-0.537 0.242,-0.541 0.275,-0.541C0.316,-0.541 0.349,-0.535 0.374,-0.522C0.399,-0.509 0.416,-0.49 0.427,-0.467C0.438,-0.443 0.444,-0.414 0.444,-0.381L0.444,-0.13C0.444,-0.117 0.445,-0.106 0.449,-0.098C0.453,-0.09 0.458,-0.084 0.466,-0.08C0.473,-0.076 0.482,-0.074 0.493,-0.074C0.5,-0.074 0.508,-0.075 0.517,-0.077C0.525,-0.079 0.533,-0.081 0.542,-0.084L0.542,-0.039C0.522,-0.017 0.505,-0.004 0.491,-0C0.473,0.006 0.455,0.01 0.439,0.01C0.417,0.01 0.4,0.005 0.388,-0.004C0.373,-0.015 0.361,-0.025 0.352,-0.036L0.339,-0.052Z" style="fill:rgb(179,77,113);fill-rule:nonzero;"/>
            </g>
            <g transform="matrix(40.3923,0,0,40.3923,200.722,224.635)">
                <path d="M0.265,-0.542C0.289,-0.542 0.312,-0.54 0.334,-0.536C0.356,-0.532 0.38,-0.526 0.407,-0.516L0.42,-0.376L0.363,-0.376L0.324,-0.455C0.32,-0.456 0.316,-0.456 0.313,-0.457C0.293,-0.462 0.275,-0.464 0.259,-0.464C0.223,-0.464 0.195,-0.461 0.177,-0.454C0.159,-0.447 0.15,-0.432 0.15,-0.41C0.15,-0.388 0.155,-0.372 0.167,-0.361C0.179,-0.349 0.195,-0.341 0.215,-0.335C0.235,-0.329 0.258,-0.324 0.284,-0.319C0.303,-0.315 0.322,-0.31 0.341,-0.304C0.36,-0.298 0.376,-0.29 0.391,-0.279C0.406,-0.268 0.418,-0.253 0.427,-0.234C0.436,-0.215 0.441,-0.19 0.441,-0.161C0.441,-0.124 0.433,-0.093 0.416,-0.067C0.399,-0.042 0.374,-0.023 0.341,-0.01C0.308,0.003 0.267,0.01 0.218,0.01C0.192,0.01 0.166,0.007 0.138,0.003C0.11,-0.001 0.087,-0.007 0.068,-0.015L0.046,-0.167L0.104,-0.167L0.15,-0.076C0.159,-0.074 0.168,-0.073 0.178,-0.072C0.191,-0.071 0.203,-0.071 0.214,-0.071C0.259,-0.071 0.292,-0.075 0.314,-0.084C0.336,-0.093 0.347,-0.111 0.347,-0.14C0.347,-0.159 0.342,-0.174 0.333,-0.185C0.324,-0.196 0.311,-0.204 0.296,-0.21C0.28,-0.216 0.263,-0.22 0.244,-0.224C0.225,-0.227 0.206,-0.231 0.187,-0.236C0.162,-0.242 0.14,-0.25 0.12,-0.261C0.1,-0.272 0.085,-0.288 0.074,-0.308C0.063,-0.328 0.058,-0.354 0.058,-0.388C0.058,-0.421 0.066,-0.449 0.083,-0.472C0.1,-0.495 0.124,-0.512 0.155,-0.524C0.186,-0.536 0.222,-0.542 0.265,-0.542Z" style="fill:rgb(179,77,113);fill-rule:nonzero;"/>
            </g>
            <g transform="matrix(40.3923,0,0,40.3923,220.373,224.635)">
                <path d="M0.38,-0.332C0.378,-0.361 0.374,-0.386 0.367,-0.405C0.358,-0.428 0.346,-0.445 0.331,-0.455C0.315,-0.466 0.296,-0.471 0.273,-0.471C0.246,-0.471 0.223,-0.465 0.204,-0.452C0.185,-0.439 0.17,-0.42 0.16,-0.393C0.153,-0.375 0.149,-0.354 0.147,-0.33L0.38,-0.332ZM0.274,-0.537C0.322,-0.537 0.362,-0.527 0.393,-0.508C0.425,-0.488 0.448,-0.458 0.463,-0.416C0.477,-0.375 0.485,-0.324 0.487,-0.264L0.146,-0.264C0.148,-0.227 0.155,-0.197 0.166,-0.172C0.179,-0.142 0.199,-0.119 0.227,-0.105C0.254,-0.09 0.288,-0.083 0.329,-0.083C0.348,-0.083 0.367,-0.084 0.384,-0.088C0.402,-0.092 0.419,-0.097 0.435,-0.103C0.451,-0.109 0.465,-0.116 0.479,-0.123L0.483,-0.075C0.461,-0.056 0.439,-0.041 0.417,-0.028C0.394,-0.015 0.371,-0.005 0.349,0.002C0.327,0.008 0.305,0.012 0.285,0.012C0.236,0.012 0.194,0.001 0.158,-0.021C0.122,-0.042 0.094,-0.073 0.074,-0.113C0.054,-0.153 0.044,-0.201 0.044,-0.258C0.044,-0.315 0.053,-0.364 0.073,-0.407C0.092,-0.45 0.118,-0.482 0.152,-0.504C0.186,-0.526 0.227,-0.537 0.274,-0.537Z" style="fill:rgb(179,77,113);fill-rule:nonzero;"/>
            </g>
            <g transform="matrix(40.3923,0,0,40.3923,241.821,224.635)">
                <path d="M0.419,-0.521L0.419,-0.673L0.325,-0.716L0.34,-0.757L0.51,-0.794L0.531,-0.794L0.522,-0.683L0.519,-0.094C0.519,-0.065 0.548,-0.053 0.605,-0.058L0.606,-0L0.448,0.005L0.43,-0.026C0.356,0.006 0.281,0.016 0.203,0.004C0.175,-0 0.149,-0.011 0.123,-0.027C0.096,-0.043 0.075,-0.07 0.059,-0.108C0.043,-0.146 0.035,-0.191 0.035,-0.244C0.035,-0.289 0.042,-0.331 0.056,-0.368C0.069,-0.405 0.088,-0.436 0.113,-0.462C0.137,-0.488 0.166,-0.507 0.199,-0.521C0.232,-0.535 0.267,-0.542 0.305,-0.542C0.327,-0.542 0.347,-0.54 0.366,-0.537C0.384,-0.534 0.401,-0.528 0.419,-0.521ZM0.419,-0.351C0.419,-0.388 0.409,-0.417 0.392,-0.439C0.374,-0.46 0.343,-0.471 0.3,-0.471C0.267,-0.471 0.239,-0.463 0.216,-0.447C0.193,-0.431 0.176,-0.407 0.164,-0.377C0.152,-0.347 0.146,-0.31 0.146,-0.268C0.146,-0.226 0.152,-0.191 0.164,-0.163C0.176,-0.135 0.193,-0.114 0.216,-0.101C0.239,-0.087 0.266,-0.081 0.299,-0.081C0.326,-0.081 0.353,-0.085 0.379,-0.093C0.392,-0.097 0.405,-0.102 0.419,-0.108L0.419,-0.351Z" style="fill:rgb(179,77,113);fill-rule:nonzero;"/>
            </g>
            <g transform="matrix(40.3923,0,0,40.3923,276.821,224.635)">
                <path d="M0.293,-0.066C0.324,-0.066 0.351,-0.072 0.373,-0.085C0.395,-0.098 0.412,-0.119 0.423,-0.146C0.434,-0.174 0.44,-0.209 0.44,-0.252C0.44,-0.3 0.435,-0.339 0.425,-0.371C0.414,-0.402 0.399,-0.426 0.378,-0.442C0.357,-0.458 0.331,-0.466 0.299,-0.466C0.267,-0.466 0.241,-0.459 0.219,-0.446C0.197,-0.433 0.18,-0.413 0.169,-0.385C0.158,-0.357 0.152,-0.322 0.152,-0.279C0.152,-0.232 0.157,-0.192 0.168,-0.161C0.178,-0.129 0.193,-0.105 0.214,-0.089C0.235,-0.073 0.261,-0.066 0.293,-0.066ZM0.292,0.012C0.241,0.012 0.197,0 0.16,-0.023C0.123,-0.045 0.095,-0.077 0.075,-0.119C0.055,-0.16 0.045,-0.209 0.045,-0.264C0.045,-0.32 0.055,-0.368 0.077,-0.41C0.097,-0.452 0.127,-0.485 0.165,-0.508C0.203,-0.531 0.248,-0.542 0.3,-0.542C0.351,-0.542 0.395,-0.531 0.432,-0.508C0.469,-0.485 0.498,-0.453 0.518,-0.412C0.538,-0.371 0.548,-0.323 0.548,-0.268C0.548,-0.212 0.537,-0.163 0.516,-0.121C0.495,-0.079 0.465,-0.046 0.427,-0.023C0.389,-0 0.344,0.012 0.292,0.012Z" style="fill:rgb(179,77,113);fill-rule:nonzero;"/>
            </g>
            <g transform="matrix(40.3923,0,0,40.3923,300.552,224.635)">
                <path d="M0.376,-0.045L0.449,-0.067L0.449,-0.34C0.448,-0.362 0.445,-0.381 0.438,-0.395C0.431,-0.41 0.419,-0.42 0.404,-0.428C0.388,-0.435 0.367,-0.438 0.342,-0.438C0.319,-0.438 0.296,-0.435 0.273,-0.429C0.252,-0.424 0.233,-0.417 0.217,-0.409L0.217,-0.067L0.289,-0.045L0.289,-0L0.036,-0L0.036,-0.045L0.114,-0.068L0.115,-0.433C0.109,-0.437 0.093,-0.442 0.068,-0.448L0.03,-0.457L0.03,-0.479C0.03,-0.479 0.078,-0.501 0.172,-0.544L0.19,-0.544L0.21,-0.475C0.33,-0.555 0.431,-0.563 0.515,-0.498C0.539,-0.479 0.552,-0.435 0.552,-0.367L0.552,-0.068L0.63,-0.045L0.63,-0L0.376,-0L0.376,-0.045Z" style="fill:rgb(179,77,113);fill-rule:nonzero;"/>
            </g>
            <g transform="matrix(40.3923,0,0,40.3923,336.461,224.635)">
                <path d="M0.247,-0.312L0.247,-0.07L0.333,-0.046L0.333,-0L0.049,-0L0.049,-0.046L0.136,-0.07L0.136,-0.629L0.069,-0.646L0.069,-0.698L0.388,-0.698C0.444,-0.698 0.489,-0.691 0.523,-0.676C0.556,-0.661 0.58,-0.641 0.595,-0.614C0.61,-0.588 0.617,-0.557 0.617,-0.523C0.617,-0.491 0.611,-0.463 0.6,-0.439C0.589,-0.415 0.571,-0.395 0.548,-0.38C0.528,-0.366 0.503,-0.356 0.474,-0.35C0.494,-0.347 0.51,-0.342 0.522,-0.336C0.538,-0.328 0.55,-0.316 0.559,-0.301C0.568,-0.285 0.575,-0.266 0.581,-0.243L0.608,-0.125C0.613,-0.104 0.618,-0.088 0.624,-0.078C0.629,-0.068 0.635,-0.061 0.641,-0.058C0.646,-0.055 0.662,-0.054 0.689,-0.054L0.711,-0C0.674,0.002 0.64,0.002 0.61,0C0.579,-0.001 0.557,-0.005 0.544,-0.012C0.531,-0.019 0.522,-0.029 0.515,-0.044C0.509,-0.057 0.503,-0.075 0.498,-0.099L0.472,-0.212C0.466,-0.24 0.459,-0.26 0.453,-0.273C0.44,-0.299 0.411,-0.312 0.366,-0.312L0.247,-0.312ZM0.378,-0.385C0.417,-0.385 0.448,-0.395 0.471,-0.414C0.494,-0.433 0.505,-0.463 0.505,-0.504C0.505,-0.53 0.5,-0.552 0.491,-0.57C0.481,-0.587 0.464,-0.6 0.44,-0.609C0.416,-0.618 0.383,-0.622 0.341,-0.622L0.247,-0.622L0.247,-0.385L0.378,-0.385Z" style="fill:rgb(179,77,113);fill-rule:nonzero;"/>
            </g>
            <g transform="matrix(40.3923,0,0,40.3923,364.533,224.635)">
                <path d="M0.38,-0.332C0.378,-0.361 0.374,-0.386 0.367,-0.405C0.358,-0.428 0.346,-0.445 0.331,-0.455C0.315,-0.466 0.296,-0.471 0.273,-0.471C0.246,-0.471 0.223,-0.465 0.204,-0.452C0.185,-0.439 0.17,-0.42 0.16,-0.393C0.153,-0.375 0.149,-0.354 0.147,-0.33L0.38,-0.332ZM0.274,-0.537C0.322,-0.537 0.362,-0.527 0.393,-0.508C0.425,-0.488 0.448,-0.458 0.463,-0.416C0.477,-0.375 0.485,-0.324 0.487,-0.264L0.146,-0.264C0.148,-0.227 0.155,-0.197 0.166,-0.172C0.179,-0.142 0.199,-0.119 0.227,-0.105C0.254,-0.09 0.288,-0.083 0.329,-0.083C0.348,-0.083 0.367,-0.084 0.384,-0.088C0.402,-0.092 0.419,-0.097 0.435,-0.103C0.451,-0.109 0.465,-0.116 0.479,-0.123L0.483,-0.075C0.461,-0.056 0.439,-0.041 0.417,-0.028C0.394,-0.015 0.371,-0.005 0.349,0.002C0.327,0.008 0.305,0.012 0.285,0.012C0.236,0.012 0.194,0.001 0.158,-0.021C0.122,-0.042 0.094,-0.073 0.074,-0.113C0.054,-0.153 0.044,-0.201 0.044,-0.258C0.044,-0.315 0.053,-0.364 0.073,-0.407C0.092,-0.45 0.118,-0.482 0.152,-0.504C0.186,-0.526 0.227,-0.537 0.274,-0.537Z" style="fill:rgb(179,77,113);fill-rule:nonzero;"/>
            </g>
            <g transform="matrix(40.3923,0,0,40.3923,385.982,224.635)">
                <path d="M0.341,-0.27C0.309,-0.264 0.283,-0.258 0.262,-0.252C0.232,-0.243 0.209,-0.234 0.194,-0.225C0.178,-0.215 0.168,-0.204 0.163,-0.193C0.157,-0.181 0.155,-0.168 0.155,-0.153C0.155,-0.127 0.161,-0.108 0.175,-0.095C0.188,-0.082 0.209,-0.076 0.236,-0.076C0.256,-0.076 0.273,-0.08 0.289,-0.088C0.305,-0.096 0.317,-0.107 0.327,-0.121C0.336,-0.135 0.341,-0.15 0.341,-0.168L0.341,-0.27ZM0.339,-0.052C0.324,-0.039 0.313,-0.031 0.307,-0.028C0.301,-0.025 0.287,-0.017 0.266,-0.006C0.244,0.006 0.219,0.012 0.191,0.012C0.15,0.012 0.115,-0.002 0.084,-0.029C0.058,-0.051 0.045,-0.085 0.045,-0.131C0.045,-0.157 0.05,-0.18 0.059,-0.2C0.068,-0.221 0.085,-0.239 0.109,-0.256C0.133,-0.272 0.168,-0.287 0.215,-0.301C0.249,-0.311 0.291,-0.321 0.341,-0.331L0.341,-0.364C0.341,-0.4 0.333,-0.427 0.319,-0.445C0.304,-0.463 0.278,-0.472 0.241,-0.472C0.221,-0.472 0.205,-0.468 0.193,-0.461C0.186,-0.457 0.178,-0.448 0.169,-0.435C0.166,-0.431 0.162,-0.419 0.156,-0.401C0.152,-0.389 0.145,-0.381 0.134,-0.377C0.125,-0.373 0.114,-0.372 0.101,-0.372C0.083,-0.372 0.069,-0.375 0.06,-0.383C0.05,-0.391 0.046,-0.4 0.046,-0.412C0.046,-0.425 0.051,-0.438 0.063,-0.453C0.074,-0.468 0.09,-0.482 0.111,-0.495C0.131,-0.508 0.156,-0.519 0.184,-0.528C0.212,-0.537 0.242,-0.541 0.275,-0.541C0.316,-0.541 0.349,-0.535 0.374,-0.522C0.399,-0.509 0.416,-0.49 0.427,-0.467C0.438,-0.443 0.444,-0.414 0.444,-0.381L0.444,-0.13C0.444,-0.117 0.445,-0.106 0.449,-0.098C0.453,-0.09 0.458,-0.084 0.466,-0.08C0.473,-0.076 0.482,-0.074 0.493,-0.074C0.5,-0.074 0.508,-0.075 0.517,-0.077C0.525,-0.079 0.533,-0.081 0.542,-0.084L0.542,-0.039C0.522,-0.017 0.505,-0.004 0.491,-0C0.473,0.006 0.455,0.01 0.439,0.01C0.417,0.01 0.4,0.005 0.388,-0.004C0.373,-0.015 0.361,-0.025 0.352,-0.036L0.339,-0.052Z" style="fill:rgb(179,77,113);fill-rule:nonzero;"/>
            </g>
            <g transform="matrix(40.3923,0,0,40.3923,408.258,224.635)">
                <path d="M0.419,-0.521L0.419,-0.673L0.325,-0.716L0.34,-0.757L0.51,-0.794L0.531,-0.794L0.522,-0.683L0.519,-0.094C0.519,-0.065 0.548,-0.053 0.605,-0.058L0.606,-0L0.448,0.005L0.43,-0.026C0.356,0.006 0.281,0.016 0.203,0.004C0.175,-0 0.149,-0.011 0.123,-0.027C0.096,-0.043 0.075,-0.07 0.059,-0.108C0.043,-0.146 0.035,-0.191 0.035,-0.244C0.035,-0.289 0.042,-0.331 0.056,-0.368C0.069,-0.405 0.088,-0.436 0.113,-0.462C0.137,-0.488 0.166,-0.507 0.199,-0.521C0.232,-0.535 0.267,-0.542 0.305,-0.542C0.327,-0.542 0.347,-0.54 0.366,-0.537C0.384,-0.534 0.401,-0.528 0.419,-0.521ZM0.419,-0.351C0.419,-0.388 0.409,-0.417 0.392,-0.439C0.374,-0.46 0.343,-0.471 0.3,-0.471C0.267,-0.471 0.239,-0.463 0.216,-0.447C0.193,-0.431 0.176,-0.407 0.164,-0.377C0.152,-0.347 0.146,-0.31 0.146,-0.268C0.146,-0.226 0.152,-0.191 0.164,-0.163C0.176,-0.135 0.193,-0.114 0.216,-0.101C0.239,-0.087 0.266,-0.081 0.299,-0.081C0.326,-0.081 0.353,-0.085 0.379,-0.093C0.392,-0.097 0.405,-0.102 0.419,-0.108L0.419,-0.351Z" style="fill:rgb(179,77,113);fill-rule:nonzero;"/>
            </g>
            <g transform="matrix(40.3923,0,0,40.3923,433.604,224.635)">
                <path d="M0.38,-0.332C0.378,-0.361 0.374,-0.386 0.367,-0.405C0.358,-0.428 0.346,-0.445 0.331,-0.455C0.315,-0.466 0.296,-0.471 0.273,-0.471C0.246,-0.471 0.223,-0.465 0.204,-0.452C0.185,-0.439 0.17,-0.42 0.16,-0.393C0.153,-0.375 0.149,-0.354 0.147,-0.33L0.38,-0.332ZM0.274,-0.537C0.322,-0.537 0.362,-0.527 0.393,-0.508C0.425,-0.488 0.448,-0.458 0.463,-0.416C0.477,-0.375 0.485,-0.324 0.487,-0.264L0.146,-0.264C0.148,-0.227 0.155,-0.197 0.166,-0.172C0.179,-0.142 0.199,-0.119 0.227,-0.105C0.254,-0.09 0.288,-0.083 0.329,-0.083C0.348,-0.083 0.367,-0.084 0.384,-0.088C0.402,-0.092 0.419,-0.097 0.435,-0.103C0.451,-0.109 0.465,-0.116 0.479,-0.123L0.483,-0.075C0.461,-0.056 0.439,-0.041 0.417,-0.028C0.394,-0.015 0.371,-0.005 0.349,0.002C0.327,0.008 0.305,0.012 0.285,0.012C0.236,0.012 0.194,0.001 0.158,-0.021C0.122,-0.042 0.094,-0.073 0.074,-0.113C0.054,-0.153 0.044,-0.201 0.044,-0.258C0.044,-0.315 0.053,-0.364 0.073,-0.407C0.092,-0.45 0.118,-0.482 0.152,-0.504C0.186,-0.526 0.227,-0.537 0.274,-0.537Z" style="fill:rgb(179,77,113);fill-rule:nonzero;"/>
            </g>
            <g transform="matrix(40.3923,0,0,40.3923,455.053,224.635)">
                <path d="M0.374,-0.54C0.402,-0.535 0.423,-0.52 0.439,-0.495C0.439,-0.495 0.432,-0.461 0.42,-0.393C0.411,-0.397 0.401,-0.401 0.389,-0.405C0.334,-0.421 0.286,-0.425 0.245,-0.416C0.235,-0.414 0.227,-0.412 0.221,-0.409C0.22,-0.408 0.218,-0.408 0.217,-0.407L0.217,-0.068L0.303,-0.045L0.303,-0L0.036,-0L0.036,-0.045L0.114,-0.068L0.116,-0.441L0.03,-0.448L0.03,-0.479L0.173,-0.544L0.192,-0.544L0.212,-0.456L0.3,-0.516C0.314,-0.525 0.327,-0.531 0.339,-0.535C0.354,-0.539 0.366,-0.541 0.374,-0.54Z" style="fill:rgb(179,77,113);fill-rule:nonzero;"/>
            </g>
            <g transform="matrix(40.3923,0,0,40.3923,473.148,224.635)">
                <path d="M0.209,-0.068L0.284,-0.045L0.284,-0L0.029,-0L0.029,-0.045L0.106,-0.068L0.106,-0.668C0.101,-0.671 0.094,-0.675 0.084,-0.68C0.073,-0.685 0.061,-0.691 0.048,-0.697C0.034,-0.703 0.021,-0.709 0.009,-0.715L0.009,-0.752L0.209,-0.796L0.209,-0.068Z" style="fill:rgb(179,77,113);fill-rule:nonzero;"/>
            </g>
            <g transform="matrix(40.3923,0,0,40.3923,485.226,224.635)">
                <path d="M0.143,0.26C0.115,0.26 0.094,0.253 0.079,0.239C0.064,0.226 0.057,0.207 0.057,0.183C0.057,0.171 0.058,0.162 0.062,0.154C0.066,0.145 0.07,0.139 0.075,0.134C0.08,0.129 0.085,0.127 0.089,0.127C0.094,0.127 0.102,0.128 0.112,0.13C0.122,0.132 0.133,0.135 0.144,0.137C0.156,0.14 0.166,0.141 0.176,0.141C0.19,0.141 0.202,0.138 0.213,0.131C0.224,0.124 0.234,0.112 0.244,0.097C0.254,0.081 0.265,0.06 0.275,0.035L0.288,0.002L0.082,-0.46L0.011,-0.487L0.011,-0.531L0.269,-0.531L0.269,-0.487L0.197,-0.464L0.341,-0.136L0.456,-0.466L0.387,-0.487L0.387,-0.531L0.588,-0.531L0.588,-0.487L0.53,-0.468L0.313,0.1C0.298,0.138 0.283,0.169 0.267,0.193C0.251,0.216 0.233,0.233 0.213,0.244C0.193,0.254 0.17,0.26 0.143,0.26Z" style="fill:rgb(179,77,113);fill-rule:nonzero;"/>
            </g>
        </g>
    </g>
    <g id="Bookerly">
    </g>
    <g id="AaTop">
    </g>
    <g id="GgTop">
    </g>
    <g id="QqTop">
    </g>
    <g id="AaBottom">
    </g>
    <g id="GgBottom">
    </g>
    <g id="QqBottom">
    </g>
    <g id="Amazon-Kindle" serif:id="Amazon Kindle">
    </g>
    <g id="Readerly">
        <g transform="matrix(1,0,0,1,0,-2)">
            <g transform="matrix(0.609654,0,0,0.609654,-19.936,664.737)">
                <g transform="matrix(106.15,0,0,106.15,154.412,224.635)">
                    <path d="M0.341,-0.27C0.309,-0.264 0.283,-0.258 0.262,-0.252C0.232,-0.243 0.209,-0.234 0.194,-0.225C0.178,-0.215 0.168,-0.204 0.163,-0.193C0.157,-0.181 0.155,-0.168 0.155,-0.153C0.155,-0.127 0.161,-0.108 0.175,-0.095C0.188,-0.082 0.209,-0.076 0.236,-0.076C0.256,-0.076 0.273,-0.08 0.289,-0.088C0.305,-0.096 0.317,-0.107 0.327,-0.121C0.336,-0.135 0.341,-0.15 0.341,-0.168L0.341,-0.27ZM0.339,-0.052C0.324,-0.039 0.313,-0.031 0.307,-0.028C0.301,-0.025 0.287,-0.017 0.266,-0.006C0.244,0.006 0.219,0.012 0.191,0.012C0.15,0.012 0.115,-0.002 0.084,-0.029C0.058,-0.051 0.045,-0.085 0.045,-0.131C0.045,-0.157 0.05,-0.18 0.059,-0.2C0.068,-0.221 0.085,-0.239 0.109,-0.256C0.133,-0.272 0.168,-0.287 0.215,-0.301C0.249,-0.311 0.291,-0.321 0.341,-0.331L0.341,-0.364C0.341,-0.4 0.333,-0.427 0.319,-0.445C0.304,-0.463 0.278,-0.472 0.241,-0.472C0.221,-0.472 0.205,-0.468 0.193,-0.461C0.186,-0.457 0.178,-0.448 0.169,-0.435C0.166,-0.431 0.162,-0.419 0.156,-0.401C0.152,-0.389 0.145,-0.381 0.134,-0.377C0.125,-0.373 0.114,-0.372 0.101,-0.372C0.083,-0.372 0.069,-0.375 0.06,-0.383C0.05,-0.391 0.046,-0.4 0.046,-0.412C0.046,-0.425 0.051,-0.438 0.063,-0.453C0.074,-0.468 0.09,-0.482 0.111,-0.495C0.131,-0.508 0.156,-0.519 0.184,-0.528C0.212,-0.537 0.242,-0.541 0.275,-0.541C0.316,-0.541 0.349,-0.535 0.374,-0.522C0.399,-0.509 0.416,-0.49 0.427,-0.467C0.438,-0.443 0.444,-0.414 0.444,-0.381L0.444,-0.13C0.444,-0.117 0.445,-0.106 0.449,-0.098C0.453,-0.09 0.458,-0.084 0.466,-0.08C0.473,-0.076 0.482,-0.074 0.493,-0.074C0.5,-0.074 0.508,-0.075 0.517,-0.077C0.525,-0.079 0.533,-0.081 0.542,-0.084L0.542,-0.039C0.522,-0.017 0.505,-0.004 0.491,-0C0.473,0.006 0.455,0.01 0.439,0.01C0.417,0.01 0.4,0.005 0.388,-0.004C0.373,-0.015 0.361,-0.025 0.352,-0.036L0.339,-0.052Z" style="fill:white;fill-rule:nonzero;"/>
                </g>
                <g transform="matrix(106.15,0,0,106.15,212.954,224.635)">
                    <path d="M0.166,-0.482C0.178,-0.488 0.189,-0.494 0.199,-0.499C0.22,-0.51 0.238,-0.518 0.254,-0.525C0.27,-0.531 0.284,-0.535 0.297,-0.538C0.309,-0.541 0.321,-0.542 0.331,-0.542C0.378,-0.542 0.418,-0.532 0.45,-0.511C0.483,-0.49 0.507,-0.461 0.525,-0.423C0.542,-0.385 0.55,-0.34 0.55,-0.288C0.55,-0.235 0.544,-0.193 0.532,-0.162C0.515,-0.116 0.498,-0.084 0.482,-0.067C0.435,-0.019 0.377,0.005 0.308,0.006C0.164,0.011 0.083,-0.001 0.064,-0.031L0.063,-0.668C0.059,-0.671 0.051,-0.675 0.041,-0.68C0.03,-0.685 0.023,-0.689 0.02,-0.691C0.016,-0.692 0.008,-0.696 -0.005,-0.702L0.011,-0.76L0.154,-0.794L0.175,-0.794L0.166,-0.683L0.166,-0.482ZM0.166,-0.427L0.166,-0.197C0.166,-0.151 0.171,-0.122 0.18,-0.11C0.19,-0.098 0.204,-0.087 0.223,-0.077C0.242,-0.067 0.265,-0.062 0.293,-0.062C0.323,-0.062 0.349,-0.07 0.371,-0.086C0.393,-0.101 0.41,-0.125 0.421,-0.156C0.433,-0.187 0.439,-0.225 0.439,-0.271C0.439,-0.311 0.433,-0.344 0.421,-0.371C0.41,-0.397 0.393,-0.417 0.37,-0.431C0.347,-0.444 0.319,-0.451 0.286,-0.451C0.267,-0.451 0.248,-0.449 0.23,-0.446C0.212,-0.442 0.194,-0.437 0.177,-0.431C0.173,-0.429 0.17,-0.428 0.166,-0.427Z" style="fill:white;fill-rule:nonzero;"/>
                </g>
                <g transform="matrix(106.15,0,0,106.15,276.113,224.635)">
                    <path d="M0.325,-0.542C0.363,-0.542 0.393,-0.537 0.415,-0.528C0.437,-0.519 0.452,-0.508 0.462,-0.494C0.471,-0.481 0.475,-0.467 0.475,-0.454C0.475,-0.441 0.472,-0.428 0.467,-0.418C0.462,-0.407 0.454,-0.398 0.445,-0.392C0.435,-0.385 0.424,-0.382 0.412,-0.382C0.408,-0.382 0.402,-0.385 0.394,-0.391C0.386,-0.397 0.377,-0.404 0.367,-0.413C0.357,-0.422 0.347,-0.431 0.337,-0.44C0.327,-0.449 0.317,-0.456 0.308,-0.462C0.298,-0.468 0.289,-0.471 0.282,-0.471C0.254,-0.471 0.23,-0.465 0.21,-0.452C0.189,-0.439 0.173,-0.419 0.162,-0.393C0.15,-0.366 0.145,-0.333 0.145,-0.293C0.145,-0.247 0.151,-0.208 0.164,-0.177C0.177,-0.146 0.196,-0.122 0.222,-0.107C0.247,-0.091 0.279,-0.083 0.316,-0.083C0.34,-0.083 0.364,-0.086 0.388,-0.093C0.412,-0.1 0.437,-0.11 0.463,-0.124L0.467,-0.075C0.445,-0.056 0.423,-0.04 0.402,-0.027C0.38,-0.014 0.359,-0.005 0.338,0.002C0.317,0.008 0.296,0.012 0.276,0.012C0.23,0.012 0.189,0.001 0.154,-0.02C0.119,-0.041 0.092,-0.072 0.073,-0.112C0.054,-0.152 0.044,-0.2 0.044,-0.257C0.044,-0.301 0.05,-0.34 0.063,-0.375C0.075,-0.41 0.094,-0.44 0.118,-0.465C0.142,-0.49 0.172,-0.509 0.206,-0.522C0.241,-0.535 0.28,-0.542 0.325,-0.542Z" style="fill:white;fill-rule:nonzero;"/>
                </g>
                <g transform="matrix(106.15,0,0,106.15,329.825,224.635)">
                    <path d="M0.419,-0.521L0.419,-0.673L0.325,-0.716L0.34,-0.757L0.51,-0.794L0.531,-0.794L0.522,-0.683L0.519,-0.094C0.519,-0.065 0.548,-0.053 0.605,-0.058L0.606,-0L0.448,0.005L0.43,-0.026C0.356,0.006 0.281,0.016 0.203,0.004C0.175,-0 0.149,-0.011 0.123,-0.027C0.096,-0.043 0.075,-0.07 0.059,-0.108C0.043,-0.146 0.035,-0.191 0.035,-0.244C0.035,-0.289 0.042,-0.331 0.056,-0.368C0.069,-0.405 0.088,-0.436 0.113,-0.462C0.137,-0.488 0.166,-0.507 0.199,-0.521C0.232,-0.535 0.267,-0.542 0.305,-0.542C0.327,-0.542 0.347,-0.54 0.366,-0.537C0.384,-0.534 0.401,-0.528 0.419,-0.521ZM0.419,-0.351C0.419,-0.388 0.409,-0.417 0.392,-0.439C0.374,-0.46 0.343,-0.471 0.3,-0.471C0.267,-0.471 0.239,-0.463 0.216,-0.447C0.193,-0.431 0.176,-0.407 0.164,-0.377C0.152,-0.347 0.146,-0.31 0.146,-0.268C0.146,-0.226 0.152,-0.191 0.164,-0.163C0.176,-0.135 0.193,-0.114 0.216,-0.101C0.239,-0.087 0.266,-0.081 0.299,-0.081C0.326,-0.081 0.353,-0.085 0.379,-0.093C0.392,-0.097 0.405,-0.102 0.419,-0.108L0.419,-0.351Z" style="fill:white;fill-rule:nonzero;"/>
                </g>
                <g transform="matrix(106.15,0,0,106.15,396.434,224.635)">
                    <path d="M0.38,-0.332C0.378,-0.361 0.374,-0.386 0.367,-0.405C0.358,-0.428 0.346,-0.445 0.331,-0.455C0.315,-0.466 0.296,-0.471 0.273,-0.471C0.246,-0.471 0.223,-0.465 0.204,-0.452C0.185,-0.439 0.17,-0.42 0.16,-0.393C0.153,-0.375 0.149,-0.354 0.147,-0.33L0.38,-0.332ZM0.274,-0.537C0.322,-0.537 0.362,-0.527 0.393,-0.508C0.425,-0.488 0.448,-0.458 0.463,-0.416C0.477,-0.375 0.485,-0.324 0.487,-0.264L0.146,-0.264C0.148,-0.227 0.155,-0.197 0.166,-0.172C0.179,-0.142 0.199,-0.119 0.227,-0.105C0.254,-0.09 0.288,-0.083 0.329,-0.083C0.348,-0.083 0.367,-0.084 0.384,-0.088C0.402,-0.092 0.419,-0.097 0.435,-0.103C0.451,-0.109 0.465,-0.116 0.479,-0.123L0.483,-0.075C0.461,-0.056 0.439,-0.041 0.417,-0.028C0.394,-0.015 0.371,-0.005 0.349,0.002C0.327,0.008 0.305,0.012 0.285,0.012C0.236,0.012 0.194,0.001 0.158,-0.021C0.122,-0.042 0.094,-0.073 0.074,-0.113C0.054,-0.153 0.044,-0.201 0.044,-0.258C0.044,-0.315 0.053,-0.364 0.073,-0.407C0.092,-0.45 0.118,-0.482 0.152,-0.504C0.186,-0.526 0.227,-0.537 0.274,-0.537Z" style="fill:white;fill-rule:nonzero;"/>
                </g>
                <g transform="matrix(106.15,0,0,106.15,452.799,224.635)">
                    <path d="M0.225,-0.068L0.313,-0.045L0.313,-0L0.044,-0L0.044,-0.045L0.122,-0.068L0.122,-0.45L0.029,-0.47L0.051,-0.531L0.121,-0.531L0.122,-0.558C0.122,-0.601 0.128,-0.636 0.139,-0.662C0.152,-0.692 0.169,-0.716 0.19,-0.735C0.212,-0.754 0.237,-0.769 0.267,-0.779C0.297,-0.789 0.329,-0.794 0.366,-0.794C0.395,-0.794 0.419,-0.792 0.439,-0.788C0.458,-0.784 0.474,-0.778 0.485,-0.77C0.497,-0.763 0.505,-0.754 0.51,-0.744C0.515,-0.734 0.518,-0.724 0.518,-0.713C0.518,-0.694 0.512,-0.678 0.501,-0.666C0.489,-0.654 0.474,-0.649 0.457,-0.649C0.451,-0.649 0.444,-0.652 0.438,-0.66C0.432,-0.667 0.424,-0.675 0.416,-0.685C0.408,-0.695 0.398,-0.704 0.385,-0.711C0.373,-0.718 0.358,-0.722 0.34,-0.722C0.315,-0.722 0.294,-0.718 0.277,-0.709C0.26,-0.701 0.247,-0.688 0.238,-0.67C0.229,-0.652 0.225,-0.629 0.225,-0.602L0.225,-0.531L0.399,-0.531L0.385,-0.449L0.225,-0.451L0.225,-0.068Z" style="fill:white;fill-rule:nonzero;"/>
                </g>
                <g transform="matrix(106.15,0,0,106.15,496.161,224.635)">
                    <path d="M0.212,0.025C0.196,0.027 0.183,0.031 0.173,0.036C0.154,0.044 0.141,0.054 0.134,0.066C0.126,0.079 0.123,0.093 0.123,0.109C0.123,0.128 0.127,0.144 0.137,0.157C0.146,0.169 0.161,0.179 0.182,0.185C0.203,0.191 0.231,0.194 0.265,0.194C0.305,0.194 0.339,0.19 0.365,0.183C0.391,0.176 0.41,0.166 0.423,0.152C0.435,0.139 0.442,0.122 0.442,0.103C0.442,0.09 0.439,0.079 0.435,0.07C0.431,0.06 0.422,0.053 0.41,0.047C0.397,0.041 0.379,0.036 0.355,0.033C0.33,0.029 0.298,0.027 0.259,0.027C0.242,0.027 0.226,0.026 0.212,0.025ZM0.259,0.26C0.215,0.26 0.178,0.257 0.148,0.251C0.117,0.245 0.092,0.236 0.073,0.225C0.054,0.214 0.04,0.2 0.031,0.184C0.022,0.168 0.017,0.15 0.017,0.129C0.017,0.114 0.02,0.1 0.027,0.087C0.034,0.073 0.045,0.061 0.061,0.05C0.074,0.041 0.094,0.032 0.121,0.024C0.131,0.021 0.142,0.019 0.155,0.017C0.131,0.011 0.112,0.004 0.098,-0.006C0.083,-0.015 0.073,-0.027 0.067,-0.04C0.061,-0.053 0.058,-0.068 0.058,-0.084C0.058,-0.109 0.069,-0.131 0.091,-0.149C0.107,-0.162 0.131,-0.172 0.162,-0.179C0.156,-0.181 0.151,-0.183 0.146,-0.186C0.115,-0.201 0.091,-0.223 0.075,-0.251C0.058,-0.28 0.05,-0.313 0.05,-0.352C0.05,-0.392 0.058,-0.426 0.075,-0.455C0.092,-0.483 0.116,-0.505 0.147,-0.52C0.178,-0.535 0.214,-0.542 0.256,-0.542C0.284,-0.542 0.31,-0.539 0.333,-0.532C0.348,-0.531 0.363,-0.531 0.379,-0.532C0.401,-0.533 0.422,-0.534 0.442,-0.535C0.461,-0.537 0.479,-0.538 0.495,-0.539C0.51,-0.54 0.522,-0.541 0.531,-0.541C0.538,-0.541 0.543,-0.538 0.546,-0.532C0.549,-0.526 0.551,-0.517 0.551,-0.503C0.551,-0.468 0.547,-0.447 0.539,-0.439C0.53,-0.442 0.52,-0.446 0.508,-0.449C0.5,-0.451 0.489,-0.454 0.475,-0.458C0.462,-0.462 0.445,-0.465 0.425,-0.469C0.433,-0.458 0.44,-0.445 0.446,-0.431C0.455,-0.408 0.46,-0.382 0.46,-0.353C0.46,-0.313 0.452,-0.279 0.435,-0.251C0.418,-0.223 0.395,-0.201 0.364,-0.186C0.333,-0.171 0.297,-0.163 0.256,-0.163C0.233,-0.163 0.212,-0.165 0.193,-0.17C0.179,-0.167 0.169,-0.163 0.162,-0.158C0.153,-0.151 0.149,-0.14 0.149,-0.126C0.149,-0.117 0.15,-0.11 0.154,-0.103C0.157,-0.097 0.164,-0.091 0.175,-0.087C0.186,-0.083 0.203,-0.08 0.225,-0.078C0.247,-0.076 0.278,-0.074 0.316,-0.074C0.355,-0.073 0.388,-0.07 0.416,-0.064C0.444,-0.058 0.467,-0.049 0.485,-0.038C0.503,-0.026 0.516,-0.011 0.525,0.007C0.533,0.026 0.538,0.048 0.538,0.075C0.538,0.112 0.527,0.144 0.506,0.172C0.484,0.2 0.453,0.221 0.411,0.237C0.37,0.252 0.319,0.26 0.259,0.26ZM0.26,-0.23C0.289,-0.23 0.313,-0.239 0.332,-0.259C0.351,-0.278 0.361,-0.308 0.361,-0.35C0.361,-0.393 0.352,-0.425 0.335,-0.446C0.318,-0.467 0.291,-0.477 0.254,-0.477C0.224,-0.477 0.2,-0.467 0.18,-0.448C0.16,-0.429 0.15,-0.398 0.15,-0.357C0.15,-0.314 0.159,-0.282 0.177,-0.261C0.195,-0.24 0.223,-0.23 0.26,-0.23Z" style="fill:white;fill-rule:nonzero;"/>
                </g>
                <g transform="matrix(106.15,0,0,106.15,555.764,224.635)">
                    <path d="M0.28,-0L0.027,-0L0.027,-0.045L0.105,-0.068L0.105,-0.668C0.1,-0.671 0.093,-0.675 0.083,-0.68C0.072,-0.685 0.06,-0.691 0.046,-0.697C0.033,-0.703 0.02,-0.709 0.007,-0.715L0.021,-0.755L0.196,-0.794L0.209,-0.794L0.208,-0.683L0.208,-0.474C0.248,-0.506 0.295,-0.527 0.349,-0.538C0.361,-0.541 0.375,-0.542 0.391,-0.542C0.443,-0.542 0.482,-0.527 0.506,-0.498C0.53,-0.469 0.543,-0.425 0.543,-0.367L0.543,-0.068L0.621,-0.045L0.621,-0L0.367,-0L0.367,-0.045L0.44,-0.067L0.44,-0.34C0.44,-0.362 0.436,-0.381 0.429,-0.395C0.422,-0.41 0.41,-0.42 0.395,-0.428C0.379,-0.435 0.358,-0.438 0.333,-0.438C0.31,-0.438 0.286,-0.435 0.263,-0.429C0.242,-0.424 0.224,-0.417 0.208,-0.409L0.208,-0.067L0.28,-0.045L0.28,-0Z" style="fill:white;fill-rule:nonzero;"/>
                </g>
                <g transform="matrix(106.15,0,0,106.15,623.806,224.635)">
                    <path d="M0.22,-0.666C0.206,-0.653 0.187,-0.647 0.163,-0.647C0.139,-0.647 0.12,-0.653 0.106,-0.665C0.092,-0.678 0.085,-0.696 0.085,-0.72C0.085,-0.744 0.092,-0.762 0.106,-0.775C0.12,-0.787 0.139,-0.794 0.163,-0.794C0.187,-0.794 0.206,-0.787 0.22,-0.775C0.234,-0.762 0.241,-0.744 0.242,-0.72C0.241,-0.696 0.234,-0.678 0.22,-0.666ZM0.224,-0.534L0.223,-0.423L0.223,-0.068L0.298,-0.045L0.298,-0L0.042,-0L0.042,-0.045L0.119,-0.068L0.117,-0.461L0.052,-0.466L0.054,-0.526L0.224,-0.534Z" style="fill:white;fill-rule:nonzero;"/>
                </g>
                <g transform="matrix(106.15,0,0,106.15,658.305,224.635)">
                    <path d="M0.135,-0.647C0.112,-0.647 0.093,-0.653 0.078,-0.665C0.064,-0.678 0.057,-0.696 0.057,-0.72C0.057,-0.744 0.064,-0.762 0.078,-0.775C0.093,-0.787 0.112,-0.794 0.135,-0.794C0.159,-0.794 0.178,-0.787 0.192,-0.775C0.206,-0.762 0.214,-0.744 0.214,-0.72C0.214,-0.696 0.206,-0.678 0.192,-0.666C0.178,-0.653 0.159,-0.647 0.135,-0.647ZM0.093,-0.461L0.033,-0.466L0.032,-0.526L0.2,-0.533L0.2,0.061C0.199,0.166 0.14,0.211 0.025,0.197L0.012,0.149C0.065,0.138 0.091,0.11 0.092,0.064L0.093,-0.461Z" style="fill:white;fill-rule:nonzero;"/>
                </g>
                <g transform="matrix(106.15,0,0,106.15,689.354,224.635)">
                    <path d="M0.208,-0.068L0.283,-0.045L0.283,-0L0.027,-0L0.027,-0.045L0.105,-0.068L0.105,-0.668C0.1,-0.671 0.093,-0.675 0.083,-0.68C0.072,-0.685 0.063,-0.689 0.056,-0.693C0.048,-0.697 0.038,-0.701 0.025,-0.707L0.046,-0.76L0.209,-0.793L0.208,-0.683L0.208,-0.335L0.265,-0.334L0.403,-0.472L0.349,-0.488L0.349,-0.531L0.585,-0.531L0.585,-0.488L0.517,-0.468L0.359,-0.32L0.556,-0.07L0.619,-0.045L0.619,-0L0.482,-0L0.433,-0.062L0.278,-0.261L0.208,-0.261L0.208,-0.068Z" style="fill:white;fill-rule:nonzero;"/>
                </g>
                <g transform="matrix(106.15,0,0,106.15,755.803,224.635)">
                    <path d="M0.209,-0.068L0.284,-0.045L0.284,-0L0.029,-0L0.029,-0.045L0.106,-0.068L0.106,-0.668C0.101,-0.671 0.094,-0.675 0.084,-0.68C0.073,-0.685 0.061,-0.691 0.048,-0.697C0.034,-0.703 0.021,-0.709 0.009,-0.715L0.009,-0.752L0.209,-0.796L0.209,-0.068Z" style="fill:white;fill-rule:nonzero;"/>
                </g>
                <g transform="matrix(106.15,0,0,106.15,789.028,224.635)">
                    <path d="M0.843,-0.377L0.843,-0.068L0.921,-0.045L0.921,-0L0.668,-0L0.668,-0.045L0.739,-0.067L0.739,-0.347C0.739,-0.369 0.736,-0.386 0.729,-0.399C0.722,-0.412 0.711,-0.422 0.697,-0.429C0.682,-0.435 0.664,-0.438 0.641,-0.438C0.62,-0.438 0.599,-0.435 0.577,-0.43C0.559,-0.426 0.542,-0.42 0.528,-0.413C0.528,-0.406 0.529,-0.398 0.529,-0.39L0.529,-0.067L0.599,-0.045L0.599,-0L0.354,-0L0.354,-0.045L0.425,-0.067L0.425,-0.348C0.425,-0.369 0.422,-0.387 0.415,-0.4C0.408,-0.413 0.398,-0.423 0.384,-0.429C0.369,-0.435 0.351,-0.438 0.328,-0.438C0.309,-0.438 0.288,-0.435 0.265,-0.43C0.246,-0.426 0.229,-0.42 0.215,-0.413L0.215,-0.067L0.285,-0.045L0.285,-0L0.034,-0L0.034,-0.045L0.112,-0.068L0.112,-0.427C0.106,-0.432 0.09,-0.438 0.065,-0.445L0.028,-0.457L0.028,-0.479C0.028,-0.479 0.075,-0.501 0.169,-0.544L0.188,-0.544L0.209,-0.47C0.236,-0.489 0.269,-0.507 0.31,-0.525C0.328,-0.533 0.34,-0.537 0.346,-0.539C0.357,-0.541 0.37,-0.542 0.385,-0.542C0.422,-0.542 0.449,-0.537 0.467,-0.526C0.494,-0.508 0.51,-0.49 0.515,-0.472C0.532,-0.486 0.558,-0.5 0.591,-0.514C0.625,-0.528 0.647,-0.536 0.659,-0.539C0.67,-0.541 0.684,-0.542 0.699,-0.542C0.748,-0.542 0.785,-0.528 0.808,-0.5C0.831,-0.472 0.842,-0.431 0.843,-0.377Z" style="fill:white;fill-rule:nonzero;"/>
                </g>
            </g>
            <g transform="matrix(0.609654,0,0,0.609654,-19.936,752.76)">
                <g transform="matrix(106.15,0,0,106.15,154.412,224.635)">
                    <path d="M0.376,-0.045L0.449,-0.067L0.449,-0.34C0.448,-0.362 0.445,-0.381 0.438,-0.395C0.431,-0.41 0.419,-0.42 0.404,-0.428C0.388,-0.435 0.367,-0.438 0.342,-0.438C0.319,-0.438 0.296,-0.435 0.273,-0.429C0.252,-0.424 0.233,-0.417 0.217,-0.409L0.217,-0.067L0.289,-0.045L0.289,-0L0.036,-0L0.036,-0.045L0.114,-0.068L0.115,-0.433C0.109,-0.437 0.093,-0.442 0.068,-0.448L0.03,-0.457L0.03,-0.479C0.03,-0.479 0.078,-0.501 0.172,-0.544L0.19,-0.544L0.21,-0.475C0.33,-0.555 0.431,-0.563 0.515,-0.498C0.539,-0.479 0.552,-0.435 0.552,-0.367L0.552,-0.068L0.63,-0.045L0.63,-0L0.376,-0L0.376,-0.045Z" style="fill:white;fill-rule:nonzero;"/>
                </g>
                <g transform="matrix(106.15,0,0,106.15,223.41,224.635)">
                    <path d="M0.293,-0.066C0.324,-0.066 0.351,-0.072 0.373,-0.085C0.395,-0.098 0.412,-0.119 0.423,-0.146C0.434,-0.174 0.44,-0.209 0.44,-0.252C0.44,-0.3 0.435,-0.339 0.425,-0.371C0.414,-0.402 0.399,-0.426 0.378,-0.442C0.357,-0.458 0.331,-0.466 0.299,-0.466C0.267,-0.466 0.241,-0.459 0.219,-0.446C0.197,-0.433 0.18,-0.413 0.169,-0.385C0.158,-0.357 0.152,-0.322 0.152,-0.279C0.152,-0.232 0.157,-0.192 0.168,-0.161C0.178,-0.129 0.193,-0.105 0.214,-0.089C0.235,-0.073 0.261,-0.066 0.293,-0.066ZM0.292,0.012C0.241,0.012 0.197,0 0.16,-0.023C0.123,-0.045 0.095,-0.077 0.075,-0.119C0.055,-0.16 0.045,-0.209 0.045,-0.264C0.045,-0.32 0.055,-0.368 0.077,-0.41C0.097,-0.452 0.127,-0.485 0.165,-0.508C0.203,-0.531 0.248,-0.542 0.3,-0.542C0.351,-0.542 0.395,-0.531 0.432,-0.508C0.469,-0.485 0.498,-0.453 0.518,-0.412C0.538,-0.371 0.548,-0.323 0.548,-0.268C0.548,-0.212 0.537,-0.163 0.516,-0.121C0.495,-0.079 0.465,-0.046 0.427,-0.023C0.389,-0 0.344,0.012 0.292,0.012Z" style="fill:white;fill-rule:nonzero;"/>
                </g>
                <g transform="matrix(106.15,0,0,106.15,285.773,224.635)">
                    <path d="M0.202,-0.073L0.202,0.182L0.29,0.204L0.29,0.26L0.019,0.26L0.019,0.204L0.099,0.181L0.099,-0.4C0.094,-0.403 0.088,-0.408 0.08,-0.414C0.071,-0.42 0.061,-0.427 0.05,-0.434C0.039,-0.441 0.027,-0.449 0.015,-0.457L0.015,-0.479L0.156,-0.545L0.175,-0.545L0.195,-0.478C0.209,-0.486 0.222,-0.494 0.234,-0.5C0.253,-0.51 0.271,-0.519 0.286,-0.525C0.302,-0.531 0.316,-0.535 0.329,-0.538C0.341,-0.541 0.353,-0.542 0.364,-0.542C0.412,-0.542 0.452,-0.532 0.485,-0.511C0.518,-0.49 0.543,-0.461 0.56,-0.423C0.577,-0.385 0.586,-0.34 0.586,-0.288C0.586,-0.226 0.575,-0.172 0.553,-0.128C0.531,-0.083 0.502,-0.048 0.466,-0.025C0.43,-0.001 0.39,0.012 0.345,0.012C0.317,0.012 0.292,0.006 0.27,-0.006C0.248,-0.018 0.229,-0.034 0.214,-0.053C0.209,-0.059 0.205,-0.066 0.202,-0.073ZM0.475,-0.261C0.475,-0.325 0.461,-0.373 0.434,-0.404C0.407,-0.435 0.369,-0.451 0.321,-0.451C0.303,-0.451 0.285,-0.449 0.268,-0.446C0.25,-0.443 0.233,-0.438 0.217,-0.432C0.212,-0.43 0.206,-0.428 0.202,-0.427L0.202,-0.184C0.202,-0.157 0.207,-0.135 0.218,-0.117C0.229,-0.099 0.244,-0.085 0.263,-0.076C0.282,-0.067 0.304,-0.062 0.329,-0.062C0.36,-0.062 0.386,-0.07 0.407,-0.086C0.429,-0.101 0.445,-0.124 0.457,-0.154C0.469,-0.184 0.475,-0.219 0.475,-0.261Z" style="fill:white;fill-rule:nonzero;"/>
                </g>
                <g transform="matrix(106.15,0,0,106.15,352.753,224.635)">
                    <path d="M0.533,-0.412L0.533,0.181L0.613,0.204L0.613,0.26L0.341,0.26L0.341,0.204L0.43,0.182L0.43,-0.047C0.404,-0.011 0.348,0.009 0.261,0.012C0.214,0.012 0.174,0.001 0.142,-0.02C0.11,-0.041 0.086,-0.07 0.07,-0.108C0.054,-0.146 0.046,-0.191 0.046,-0.244C0.046,-0.305 0.058,-0.357 0.082,-0.402C0.105,-0.447 0.138,-0.482 0.179,-0.506C0.219,-0.53 0.266,-0.542 0.318,-0.542C0.349,-0.542 0.373,-0.54 0.389,-0.535C0.444,-0.519 0.483,-0.499 0.505,-0.477C0.522,-0.459 0.532,-0.437 0.533,-0.412ZM0.157,-0.268C0.157,-0.226 0.163,-0.191 0.175,-0.163C0.187,-0.135 0.204,-0.114 0.227,-0.101C0.25,-0.087 0.277,-0.081 0.31,-0.081C0.336,-0.081 0.363,-0.084 0.389,-0.092C0.403,-0.096 0.416,-0.1 0.43,-0.107L0.43,-0.35C0.43,-0.387 0.42,-0.417 0.402,-0.438C0.384,-0.46 0.353,-0.471 0.31,-0.471C0.277,-0.471 0.249,-0.463 0.227,-0.447C0.204,-0.431 0.187,-0.407 0.175,-0.378C0.163,-0.347 0.157,-0.311 0.157,-0.268Z" style="fill:white;fill-rule:nonzero;"/>
                </g>
                <g transform="matrix(106.15,0,0,106.15,418.194,224.635)">
                    <path d="M0.374,-0.54C0.402,-0.535 0.423,-0.52 0.439,-0.495C0.439,-0.495 0.432,-0.461 0.42,-0.393C0.411,-0.397 0.401,-0.401 0.389,-0.405C0.334,-0.421 0.286,-0.425 0.245,-0.416C0.235,-0.414 0.227,-0.412 0.221,-0.409C0.22,-0.408 0.218,-0.408 0.217,-0.407L0.217,-0.068L0.303,-0.045L0.303,-0L0.036,-0L0.036,-0.045L0.114,-0.068L0.116,-0.441L0.03,-0.448L0.03,-0.479L0.173,-0.544L0.192,-0.544L0.212,-0.456L0.3,-0.516C0.314,-0.525 0.327,-0.531 0.339,-0.535C0.354,-0.539 0.366,-0.541 0.374,-0.54Z" style="fill:white;fill-rule:nonzero;"/>
                </g>
                <g transform="matrix(106.15,0,0,106.15,465.59,224.635)">
                    <path d="M0.265,-0.542C0.289,-0.542 0.312,-0.54 0.334,-0.536C0.356,-0.532 0.38,-0.526 0.407,-0.516L0.42,-0.376L0.363,-0.376L0.324,-0.455C0.32,-0.456 0.316,-0.456 0.313,-0.457C0.293,-0.462 0.275,-0.464 0.259,-0.464C0.223,-0.464 0.195,-0.461 0.177,-0.454C0.159,-0.447 0.15,-0.432 0.15,-0.41C0.15,-0.388 0.155,-0.372 0.167,-0.361C0.179,-0.349 0.195,-0.341 0.215,-0.335C0.235,-0.329 0.258,-0.324 0.284,-0.319C0.303,-0.315 0.322,-0.31 0.341,-0.304C0.36,-0.298 0.376,-0.29 0.391,-0.279C0.406,-0.268 0.418,-0.253 0.427,-0.234C0.436,-0.215 0.441,-0.19 0.441,-0.161C0.441,-0.124 0.433,-0.093 0.416,-0.067C0.399,-0.042 0.374,-0.023 0.341,-0.01C0.308,0.003 0.267,0.01 0.218,0.01C0.192,0.01 0.166,0.007 0.138,0.003C0.11,-0.001 0.087,-0.007 0.068,-0.015L0.046,-0.167L0.104,-0.167L0.15,-0.076C0.159,-0.074 0.168,-0.073 0.178,-0.072C0.191,-0.071 0.203,-0.071 0.214,-0.071C0.259,-0.071 0.292,-0.075 0.314,-0.084C0.336,-0.093 0.347,-0.111 0.347,-0.14C0.347,-0.159 0.342,-0.174 0.333,-0.185C0.324,-0.196 0.311,-0.204 0.296,-0.21C0.28,-0.216 0.263,-0.22 0.244,-0.224C0.225,-0.227 0.206,-0.231 0.187,-0.236C0.162,-0.242 0.14,-0.25 0.12,-0.261C0.1,-0.272 0.085,-0.288 0.074,-0.308C0.063,-0.328 0.058,-0.354 0.058,-0.388C0.058,-0.421 0.066,-0.449 0.083,-0.472C0.1,-0.495 0.124,-0.512 0.155,-0.524C0.186,-0.536 0.222,-0.542 0.265,-0.542Z" style="fill:white;fill-rule:nonzero;"/>
                </g>
                <g transform="matrix(106.15,0,0,106.15,517.232,224.635)">
                    <path d="M0.205,-0.163C0.205,-0.133 0.212,-0.111 0.227,-0.099C0.242,-0.087 0.265,-0.081 0.297,-0.081C0.31,-0.081 0.325,-0.082 0.342,-0.085C0.358,-0.088 0.375,-0.092 0.393,-0.098C0.393,-0.065 0.371,-0.037 0.326,-0.015C0.307,-0.005 0.29,0.001 0.276,0.005C0.261,0.009 0.247,0.011 0.233,0.011C0.208,0.011 0.186,0.006 0.166,-0.003C0.123,-0.024 0.101,-0.062 0.102,-0.117L0.103,-0.454L0.017,-0.468L0.017,-0.514L0.103,-0.531C0.112,-0.605 0.129,-0.648 0.155,-0.658L0.206,-0.658L0.205,-0.531L0.372,-0.531L0.362,-0.452L0.205,-0.451L0.205,-0.163Z" style="fill:white;fill-rule:nonzero;"/>
                </g>
                <g transform="matrix(106.15,0,0,106.15,560.488,224.635)">
                    <path d="M0.189,-0.184C0.189,-0.162 0.192,-0.144 0.198,-0.131C0.205,-0.118 0.215,-0.108 0.23,-0.102C0.244,-0.096 0.263,-0.093 0.287,-0.093C0.31,-0.093 0.331,-0.096 0.35,-0.101C0.368,-0.106 0.384,-0.112 0.399,-0.119L0.399,-0.45L0.352,-0.474L0.352,-0.521L0.511,-0.531L0.504,-0.458L0.507,-0.075L0.59,-0.04C0.572,-0.008 0.519,0.009 0.43,0.011L0.402,-0.046L0.367,-0.028C0.344,-0.016 0.325,-0.008 0.31,-0.003C0.294,0.002 0.281,0.006 0.269,0.008C0.258,0.01 0.245,0.012 0.23,0.012C0.18,0.012 0.143,-0.003 0.12,-0.031C0.097,-0.059 0.086,-0.1 0.086,-0.155L0.086,-0.448L0.033,-0.471L0.033,-0.516L0.198,-0.531L0.189,-0.458L0.189,-0.184Z" style="fill:white;fill-rule:nonzero;"/>
                </g>
                <g transform="matrix(106.15,0,0,106.15,624.443,224.635)">
                    <path d="M0.542,-0.468L0.363,0.005L0.27,0.005L0.077,-0.46L0.006,-0.487L0.006,-0.531L0.264,-0.531L0.264,-0.487L0.192,-0.464L0.341,-0.099L0.47,-0.466L0.401,-0.487L0.401,-0.531L0.6,-0.531L0.6,-0.487L0.542,-0.468Z" style="fill:white;fill-rule:nonzero;"/>
                </g>
                <g transform="matrix(106.15,0,0,106.15,690.468,224.635)">
                    <path d="M0.696,-0.466C0.695,-0.466 0.672,-0.472 0.626,-0.487L0.626,-0.531L0.82,-0.531L0.82,-0.487L0.765,-0.468L0.648,0.005L0.556,0.005L0.428,-0.403L0.294,0.005L0.201,0.005L0.085,-0.46L0.015,-0.487L0.015,-0.531L0.238,-0.531L0.238,-0.479L0.191,-0.464L0.274,-0.124L0.401,-0.522L0.498,-0.521L0.62,-0.13L0.696,-0.466Z" style="fill:white;fill-rule:nonzero;"/>
                </g>
                <g transform="matrix(106.15,0,0,106.15,779.369,224.635)">
                    <path d="M0.514,-0.069L0.575,-0.044L0.575,-0L0.331,-0L0.331,-0.044L0.389,-0.065L0.275,-0.217L0.153,-0.062L0.214,-0.044L0.214,-0L0.021,-0L0.021,-0.044L0.075,-0.063L0.239,-0.265L0.088,-0.462L0.026,-0.487L0.026,-0.531L0.27,-0.531L0.27,-0.487L0.213,-0.467L0.314,-0.33L0.424,-0.47L0.363,-0.487L0.363,-0.531L0.555,-0.531L0.555,-0.487L0.502,-0.468L0.35,-0.283L0.514,-0.069Z" style="fill:white;fill-rule:nonzero;"/>
                </g>
                <g transform="matrix(106.15,0,0,106.15,841.891,224.635)">
                    <path d="M0.143,0.26C0.115,0.26 0.094,0.253 0.079,0.239C0.064,0.226 0.057,0.207 0.057,0.183C0.057,0.171 0.058,0.162 0.062,0.154C0.066,0.145 0.07,0.139 0.075,0.134C0.08,0.129 0.085,0.127 0.089,0.127C0.094,0.127 0.102,0.128 0.112,0.13C0.122,0.132 0.133,0.135 0.144,0.137C0.156,0.14 0.166,0.141 0.176,0.141C0.19,0.141 0.202,0.138 0.213,0.131C0.224,0.124 0.234,0.112 0.244,0.097C0.254,0.081 0.265,0.06 0.275,0.035L0.288,0.002L0.082,-0.46L0.011,-0.487L0.011,-0.531L0.269,-0.531L0.269,-0.487L0.197,-0.464L0.341,-0.136L0.456,-0.466L0.387,-0.487L0.387,-0.531L0.588,-0.531L0.588,-0.487L0.53,-0.468L0.313,0.1C0.298,0.138 0.283,0.169 0.267,0.193C0.251,0.216 0.233,0.233 0.213,0.244C0.193,0.254 0.17,0.26 0.143,0.26Z" style="fill:white;fill-rule:nonzero;"/>
                </g>
                <g transform="matrix(106.15,0,0,106.15,905.262,224.635)">
                    <path d="M0.044,-0L0.044,-0.038L0.32,-0.461L0.137,-0.46L0.09,-0.359L0.044,-0.359L0.061,-0.531L0.481,-0.531L0.181,-0.07L0.367,-0.071L0.432,-0.189L0.478,-0.189L0.438,-0L0.044,-0Z" style="fill:white;fill-rule:nonzero;"/>
                </g>
            </g>
            <g transform="matrix(0.609654,0,0,0.609654,231.687,845.08)">
                <g transform="matrix(106.15,0,0,106.15,154.412,224.635)">
                    <path d="M0.289,-0.589L0.099,-0.519L0.078,-0.581L0.327,-0.707L0.395,-0.707L0.395,-0.076L0.545,-0.047L0.545,-0L0.132,-0L0.132,-0.047L0.289,-0.076L0.289,-0.589Z" style="fill:white;fill-rule:nonzero;"/>
                </g>
                <g transform="matrix(106.15,0,0,106.15,218.633,224.635)">
                    <path d="M0.18,-0.101L0.535,-0.102L0.521,-0L0.067,-0L0.067,-0.058L0.264,-0.269C0.296,-0.304 0.321,-0.334 0.339,-0.36C0.357,-0.386 0.369,-0.409 0.376,-0.43C0.383,-0.45 0.386,-0.47 0.386,-0.489C0.386,-0.528 0.376,-0.558 0.357,-0.579C0.337,-0.6 0.308,-0.611 0.27,-0.611C0.243,-0.611 0.219,-0.606 0.199,-0.596C0.178,-0.587 0.161,-0.571 0.146,-0.549C0.131,-0.526 0.118,-0.496 0.107,-0.457L0.047,-0.469C0.064,-0.551 0.094,-0.611 0.136,-0.65C0.179,-0.689 0.235,-0.709 0.304,-0.709C0.342,-0.709 0.376,-0.701 0.406,-0.686C0.435,-0.67 0.458,-0.648 0.474,-0.62C0.49,-0.592 0.499,-0.558 0.499,-0.518C0.499,-0.496 0.496,-0.475 0.492,-0.455C0.487,-0.436 0.479,-0.416 0.467,-0.396C0.455,-0.376 0.439,-0.354 0.418,-0.33C0.397,-0.307 0.37,-0.28 0.335,-0.247L0.18,-0.101Z" style="fill:white;fill-rule:nonzero;"/>
                </g>
                <g transform="matrix(106.15,0,0,106.15,282.057,224.635)">
                    <path d="M0.237,-0.322L0.228,-0.386C0.271,-0.394 0.304,-0.404 0.328,-0.416C0.352,-0.428 0.37,-0.443 0.38,-0.461C0.39,-0.478 0.395,-0.498 0.395,-0.521C0.395,-0.55 0.386,-0.574 0.37,-0.593C0.353,-0.612 0.325,-0.622 0.286,-0.622C0.248,-0.622 0.217,-0.612 0.191,-0.592C0.165,-0.572 0.146,-0.539 0.133,-0.494L0.076,-0.511C0.085,-0.554 0.101,-0.59 0.122,-0.619C0.144,-0.648 0.171,-0.671 0.203,-0.686C0.235,-0.701 0.272,-0.709 0.314,-0.709C0.354,-0.709 0.388,-0.702 0.415,-0.689C0.441,-0.676 0.461,-0.658 0.474,-0.635C0.487,-0.613 0.494,-0.587 0.494,-0.558C0.494,-0.53 0.488,-0.504 0.475,-0.48C0.462,-0.457 0.442,-0.437 0.416,-0.422C0.397,-0.411 0.376,-0.402 0.351,-0.397C0.387,-0.397 0.418,-0.39 0.444,-0.378C0.473,-0.364 0.494,-0.344 0.509,-0.318C0.524,-0.292 0.531,-0.261 0.531,-0.224C0.531,-0.179 0.519,-0.138 0.496,-0.103C0.472,-0.068 0.438,-0.04 0.393,-0.02C0.348,0 0.294,0.011 0.231,0.011C0.19,0.011 0.157,0.007 0.133,-0.001C0.109,-0.008 0.092,-0.018 0.082,-0.031C0.072,-0.044 0.067,-0.058 0.067,-0.073C0.067,-0.091 0.072,-0.106 0.083,-0.118C0.094,-0.13 0.105,-0.136 0.117,-0.136C0.122,-0.136 0.128,-0.133 0.136,-0.127C0.144,-0.122 0.153,-0.115 0.163,-0.107C0.173,-0.099 0.183,-0.091 0.194,-0.083C0.204,-0.075 0.215,-0.068 0.226,-0.062C0.237,-0.057 0.248,-0.054 0.258,-0.054C0.294,-0.054 0.325,-0.06 0.351,-0.073C0.376,-0.085 0.396,-0.103 0.409,-0.127C0.422,-0.15 0.429,-0.178 0.429,-0.211C0.429,-0.239 0.424,-0.262 0.413,-0.281C0.402,-0.3 0.386,-0.314 0.363,-0.322C0.34,-0.33 0.311,-0.331 0.276,-0.327L0.237,-0.322Z" style="fill:white;fill-rule:nonzero;"/>
                </g>
                <g transform="matrix(106.15,0,0,106.15,346.278,224.635)">
                    <path d="M0.345,-0.21L0.04,-0.21L0.04,-0.286L0.328,-0.7L0.45,-0.7L0.45,-0.297L0.583,-0.298L0.583,-0.21L0.45,-0.21L0.45,-0.07L0.555,-0.043L0.555,-0L0.233,-0L0.233,-0.043L0.345,-0.07L0.345,-0.21ZM0.125,-0.297L0.345,-0.297L0.345,-0.602L0.125,-0.297Z" style="fill:white;fill-rule:nonzero;"/>
                </g>
                <g transform="matrix(106.15,0,0,106.15,413.205,224.635)">
                    <path d="M0.215,0.011C0.176,0.011 0.145,0.007 0.122,-0.001C0.099,-0.008 0.082,-0.018 0.072,-0.031C0.062,-0.044 0.057,-0.057 0.057,-0.073C0.057,-0.091 0.062,-0.106 0.073,-0.118C0.084,-0.13 0.095,-0.136 0.108,-0.136C0.112,-0.136 0.118,-0.133 0.126,-0.128C0.134,-0.123 0.143,-0.116 0.153,-0.108C0.162,-0.1 0.172,-0.092 0.183,-0.084C0.194,-0.076 0.205,-0.069 0.216,-0.063C0.227,-0.058 0.237,-0.055 0.247,-0.055C0.282,-0.055 0.312,-0.061 0.338,-0.073C0.364,-0.085 0.383,-0.102 0.397,-0.124C0.411,-0.147 0.418,-0.174 0.418,-0.207C0.418,-0.228 0.413,-0.247 0.405,-0.265C0.397,-0.282 0.382,-0.298 0.361,-0.311C0.34,-0.324 0.309,-0.335 0.27,-0.344C0.231,-0.353 0.181,-0.36 0.119,-0.364L0.207,-0.702L0.538,-0.702L0.506,-0.599L0.249,-0.599L0.206,-0.461C0.243,-0.457 0.277,-0.451 0.306,-0.444C0.345,-0.435 0.378,-0.424 0.404,-0.411C0.43,-0.397 0.451,-0.382 0.466,-0.364C0.481,-0.346 0.492,-0.327 0.498,-0.305C0.504,-0.284 0.508,-0.26 0.508,-0.234C0.508,-0.198 0.501,-0.165 0.488,-0.135C0.475,-0.105 0.455,-0.079 0.43,-0.058C0.405,-0.036 0.374,-0.019 0.338,-0.007C0.302,0.005 0.261,0.011 0.215,0.011Z" style="fill:white;fill-rule:nonzero;"/>
                </g>
                <g transform="matrix(106.15,0,0,106.15,477.426,224.635)">
                    <path d="M0.176,-0.261C0.177,-0.22 0.182,-0.186 0.192,-0.158C0.202,-0.126 0.217,-0.101 0.238,-0.085C0.259,-0.068 0.284,-0.06 0.315,-0.06C0.344,-0.06 0.368,-0.066 0.387,-0.078C0.406,-0.089 0.421,-0.106 0.431,-0.128C0.441,-0.149 0.446,-0.175 0.446,-0.205C0.446,-0.254 0.435,-0.29 0.414,-0.313C0.392,-0.336 0.362,-0.347 0.323,-0.347C0.307,-0.347 0.291,-0.345 0.276,-0.341C0.232,-0.33 0.199,-0.303 0.176,-0.261ZM0.469,-0.723L0.491,-0.653C0.441,-0.636 0.398,-0.621 0.362,-0.608C0.325,-0.594 0.295,-0.576 0.271,-0.554C0.247,-0.531 0.229,-0.506 0.215,-0.479C0.201,-0.452 0.191,-0.421 0.185,-0.388C0.18,-0.363 0.177,-0.336 0.176,-0.307C0.181,-0.316 0.186,-0.324 0.192,-0.332C0.207,-0.353 0.224,-0.37 0.242,-0.384C0.26,-0.398 0.28,-0.408 0.301,-0.415C0.322,-0.422 0.343,-0.426 0.366,-0.426C0.401,-0.426 0.433,-0.418 0.461,-0.404C0.488,-0.39 0.51,-0.368 0.525,-0.339C0.541,-0.31 0.549,-0.274 0.549,-0.23C0.549,-0.182 0.539,-0.139 0.519,-0.103C0.5,-0.067 0.472,-0.039 0.437,-0.019C0.401,0.001 0.359,0.011 0.31,0.011C0.256,0.011 0.211,-0.002 0.176,-0.026C0.14,-0.05 0.113,-0.084 0.095,-0.127C0.077,-0.169 0.069,-0.219 0.069,-0.275C0.069,-0.317 0.073,-0.356 0.081,-0.393C0.089,-0.429 0.102,-0.463 0.12,-0.495C0.138,-0.527 0.163,-0.556 0.194,-0.584C0.224,-0.611 0.262,-0.636 0.307,-0.659C0.352,-0.682 0.406,-0.704 0.469,-0.723Z" style="fill:white;fill-rule:nonzero;"/>
                </g>
                <g transform="matrix(106.15,0,0,106.15,541.646,224.635)">
                    <path d="M0.467,-0.598L0.17,-0.598C0.161,-0.571 0.146,-0.529 0.126,-0.47L0.072,-0.47L0.073,-0.698L0.562,-0.698L0.56,-0.598L0.311,-0L0.193,-0L0.467,-0.598Z" style="fill:white;fill-rule:nonzero;"/>
                </g>
                <g transform="matrix(106.15,0,0,106.15,605.867,224.635)">
                    <path d="M0.34,-0.406C0.367,-0.417 0.388,-0.43 0.402,-0.446C0.422,-0.468 0.432,-0.498 0.432,-0.534C0.432,-0.554 0.428,-0.572 0.42,-0.588C0.412,-0.604 0.399,-0.616 0.382,-0.626C0.364,-0.635 0.34,-0.639 0.311,-0.639C0.268,-0.639 0.236,-0.629 0.214,-0.61C0.192,-0.59 0.182,-0.565 0.182,-0.534C0.182,-0.508 0.188,-0.487 0.201,-0.471C0.214,-0.455 0.232,-0.443 0.253,-0.434C0.275,-0.425 0.298,-0.417 0.324,-0.41C0.329,-0.408 0.335,-0.407 0.34,-0.406ZM0.247,-0.323C0.233,-0.317 0.221,-0.311 0.211,-0.305C0.19,-0.292 0.176,-0.276 0.167,-0.257C0.159,-0.238 0.155,-0.215 0.155,-0.188C0.155,-0.161 0.16,-0.137 0.172,-0.118C0.184,-0.099 0.201,-0.084 0.223,-0.074C0.245,-0.063 0.272,-0.058 0.303,-0.058C0.336,-0.058 0.363,-0.063 0.384,-0.073C0.405,-0.083 0.42,-0.098 0.43,-0.116C0.44,-0.134 0.445,-0.156 0.445,-0.181C0.445,-0.206 0.438,-0.227 0.425,-0.243C0.412,-0.258 0.395,-0.27 0.374,-0.28C0.352,-0.289 0.329,-0.298 0.303,-0.305C0.284,-0.31 0.266,-0.316 0.247,-0.323ZM0.316,-0.709C0.366,-0.709 0.406,-0.701 0.437,-0.687C0.467,-0.673 0.49,-0.654 0.504,-0.629C0.518,-0.604 0.525,-0.576 0.525,-0.544C0.525,-0.499 0.508,-0.461 0.476,-0.432C0.455,-0.412 0.426,-0.398 0.39,-0.39C0.394,-0.389 0.398,-0.387 0.402,-0.386C0.427,-0.378 0.451,-0.366 0.472,-0.352C0.494,-0.337 0.511,-0.318 0.524,-0.293C0.537,-0.268 0.544,-0.236 0.544,-0.197C0.544,-0.154 0.534,-0.117 0.515,-0.086C0.496,-0.055 0.468,-0.031 0.432,-0.014C0.396,0.002 0.352,0.011 0.3,0.011C0.246,0.011 0.202,0.003 0.166,-0.011C0.13,-0.026 0.102,-0.047 0.084,-0.074C0.066,-0.101 0.057,-0.133 0.057,-0.171C0.057,-0.197 0.062,-0.221 0.072,-0.242C0.081,-0.263 0.095,-0.281 0.114,-0.297C0.133,-0.312 0.155,-0.325 0.182,-0.334C0.188,-0.335 0.195,-0.338 0.202,-0.34C0.185,-0.347 0.17,-0.355 0.156,-0.365C0.134,-0.38 0.117,-0.399 0.104,-0.424C0.091,-0.448 0.085,-0.479 0.085,-0.517C0.085,-0.553 0.093,-0.585 0.111,-0.614C0.128,-0.643 0.154,-0.666 0.188,-0.683C0.223,-0.7 0.265,-0.709 0.316,-0.709Z" style="fill:white;fill-rule:nonzero;"/>
                </g>
                <g transform="matrix(106.15,0,0,106.15,670.088,224.635)">
                    <path d="M0.428,-0.44C0.427,-0.48 0.422,-0.514 0.413,-0.542C0.402,-0.574 0.386,-0.598 0.366,-0.614C0.345,-0.63 0.32,-0.639 0.289,-0.639C0.261,-0.639 0.237,-0.633 0.218,-0.622C0.198,-0.611 0.184,-0.595 0.174,-0.574C0.164,-0.554 0.159,-0.529 0.159,-0.5C0.159,-0.467 0.164,-0.441 0.174,-0.42C0.184,-0.399 0.199,-0.384 0.218,-0.374C0.236,-0.364 0.258,-0.36 0.283,-0.36C0.299,-0.36 0.314,-0.361 0.329,-0.365C0.344,-0.369 0.358,-0.375 0.372,-0.383C0.385,-0.39 0.397,-0.4 0.408,-0.411C0.415,-0.42 0.422,-0.429 0.428,-0.44ZM0.142,0.025L0.121,-0.03C0.169,-0.048 0.21,-0.066 0.245,-0.085C0.28,-0.104 0.31,-0.125 0.334,-0.147C0.357,-0.169 0.376,-0.193 0.39,-0.22C0.404,-0.247 0.414,-0.277 0.42,-0.31C0.424,-0.336 0.427,-0.365 0.428,-0.397C0.423,-0.388 0.418,-0.379 0.412,-0.371C0.397,-0.35 0.38,-0.333 0.362,-0.32C0.344,-0.307 0.324,-0.297 0.304,-0.291C0.283,-0.285 0.262,-0.282 0.24,-0.282C0.203,-0.282 0.171,-0.289 0.143,-0.304C0.115,-0.319 0.094,-0.342 0.079,-0.372C0.063,-0.402 0.056,-0.438 0.056,-0.483C0.056,-0.529 0.065,-0.568 0.085,-0.602C0.105,-0.636 0.133,-0.662 0.169,-0.681C0.205,-0.699 0.247,-0.709 0.296,-0.709C0.35,-0.709 0.395,-0.696 0.43,-0.672C0.466,-0.648 0.492,-0.614 0.51,-0.571C0.527,-0.528 0.536,-0.479 0.536,-0.423C0.536,-0.382 0.532,-0.343 0.524,-0.308C0.516,-0.272 0.503,-0.238 0.485,-0.206C0.467,-0.175 0.442,-0.145 0.412,-0.118C0.382,-0.091 0.344,-0.066 0.3,-0.042C0.255,-0.018 0.203,0.004 0.142,0.025Z" style="fill:white;fill-rule:nonzero;"/>
                </g>
                <g transform="matrix(106.15,0,0,106.15,734.308,224.635)">
                    <path d="M0.305,-0.064C0.337,-0.064 0.365,-0.073 0.386,-0.093C0.408,-0.113 0.424,-0.142 0.435,-0.182C0.446,-0.222 0.451,-0.272 0.451,-0.332C0.451,-0.384 0.448,-0.429 0.442,-0.467C0.435,-0.505 0.426,-0.536 0.413,-0.561C0.401,-0.585 0.385,-0.604 0.367,-0.616C0.348,-0.628 0.326,-0.635 0.301,-0.635C0.268,-0.635 0.241,-0.625 0.219,-0.605C0.197,-0.585 0.181,-0.555 0.171,-0.516C0.16,-0.476 0.155,-0.426 0.155,-0.366C0.155,-0.314 0.158,-0.27 0.164,-0.232C0.17,-0.194 0.179,-0.162 0.192,-0.137C0.204,-0.112 0.22,-0.094 0.239,-0.082C0.258,-0.07 0.28,-0.064 0.305,-0.064ZM0.306,-0.709C0.36,-0.709 0.405,-0.695 0.444,-0.667C0.482,-0.639 0.511,-0.599 0.531,-0.547C0.552,-0.495 0.562,-0.433 0.562,-0.36C0.562,-0.282 0.552,-0.216 0.532,-0.161C0.512,-0.106 0.483,-0.064 0.444,-0.034C0.405,-0.004 0.356,0.011 0.299,0.011C0.246,0.011 0.2,-0.003 0.162,-0.031C0.124,-0.059 0.095,-0.099 0.074,-0.151C0.054,-0.203 0.044,-0.266 0.044,-0.339C0.044,-0.416 0.054,-0.482 0.074,-0.537C0.094,-0.592 0.123,-0.634 0.162,-0.664C0.201,-0.694 0.249,-0.709 0.306,-0.709Z" style="fill:white;fill-rule:nonzero;"/>
                </g>
            </g>
        </g>
        <g transform="matrix(0.805418,0,0,0.805418,-72.8692,245.787)">
            <g transform="matrix(106.15,0,0,106.15,154.412,224.635)">
                <path d="M0.354,-0.61L0.25,-0.308L0.468,-0.308L0.354,-0.61ZM0.68,-0.07L0.737,-0.047L0.737,-0L0.498,-0L0.498,-0.047L0.563,-0.07L0.496,-0.234L0.224,-0.234L0.167,-0.069L0.215,-0.047L0.216,-0L0.038,-0L0.038,-0.047L0.084,-0.069L0.309,-0.687L0.433,-0.707L0.68,-0.07Z" style="fill-rule:nonzero;"/>
            </g>
            <g transform="matrix(106.15,0,0,106.15,234.874,224.635)">
                <path d="M0.341,-0.27C0.309,-0.264 0.283,-0.258 0.262,-0.252C0.232,-0.243 0.209,-0.234 0.194,-0.225C0.178,-0.215 0.168,-0.204 0.163,-0.193C0.157,-0.181 0.155,-0.168 0.155,-0.153C0.155,-0.127 0.161,-0.108 0.175,-0.095C0.188,-0.082 0.209,-0.076 0.236,-0.076C0.256,-0.076 0.273,-0.08 0.289,-0.088C0.305,-0.096 0.317,-0.107 0.327,-0.121C0.336,-0.135 0.341,-0.15 0.341,-0.168L0.341,-0.27ZM0.339,-0.052C0.324,-0.039 0.313,-0.031 0.307,-0.028C0.301,-0.025 0.287,-0.017 0.266,-0.006C0.244,0.006 0.219,0.012 0.191,0.012C0.15,0.012 0.115,-0.002 0.084,-0.029C0.058,-0.051 0.045,-0.085 0.045,-0.131C0.045,-0.157 0.05,-0.18 0.059,-0.2C0.068,-0.221 0.085,-0.239 0.109,-0.256C0.133,-0.272 0.168,-0.287 0.215,-0.301C0.249,-0.311 0.291,-0.321 0.341,-0.331L0.341,-0.364C0.341,-0.4 0.333,-0.427 0.319,-0.445C0.304,-0.463 0.278,-0.472 0.241,-0.472C0.221,-0.472 0.205,-0.468 0.193,-0.461C0.186,-0.457 0.178,-0.448 0.169,-0.435C0.166,-0.431 0.162,-0.419 0.156,-0.401C0.152,-0.389 0.145,-0.381 0.134,-0.377C0.125,-0.373 0.114,-0.372 0.101,-0.372C0.083,-0.372 0.069,-0.375 0.06,-0.383C0.05,-0.391 0.046,-0.4 0.046,-0.412C0.046,-0.425 0.051,-0.438 0.063,-0.453C0.074,-0.468 0.09,-0.482 0.111,-0.495C0.131,-0.508 0.156,-0.519 0.184,-0.528C0.212,-0.537 0.242,-0.541 0.275,-0.541C0.316,-0.541 0.349,-0.535 0.374,-0.522C0.399,-0.509 0.416,-0.49 0.427,-0.467C0.438,-0.443 0.444,-0.414 0.444,-0.381L0.444,-0.13C0.444,-0.117 0.445,-0.106 0.449,-0.098C0.453,-0.09 0.458,-0.084 0.466,-0.08C0.473,-0.076 0.482,-0.074 0.493,-0.074C0.5,-0.074 0.508,-0.075 0.517,-0.077C0.525,-0.079 0.533,-0.081 0.542,-0.084L0.542,-0.039C0.522,-0.017 0.505,-0.004 0.491,-0C0.473,0.006 0.455,0.01 0.439,0.01C0.417,0.01 0.4,0.005 0.388,-0.004C0.373,-0.015 0.361,-0.025 0.352,-0.036L0.339,-0.052Z" style="fill-rule:nonzero;"/>
            </g>
            <g transform="matrix(106.15,0,0,106.15,318.785,224.635)">
                <path d="M0.674,-0.191L0.673,-0.035C0.634,-0.018 0.587,-0.005 0.533,0.003C0.498,0.008 0.463,0.011 0.43,0.011C0.37,0.011 0.316,0.003 0.269,-0.012C0.222,-0.027 0.182,-0.05 0.15,-0.08C0.117,-0.11 0.093,-0.147 0.076,-0.191C0.06,-0.235 0.052,-0.286 0.052,-0.344C0.053,-0.421 0.068,-0.486 0.098,-0.541C0.128,-0.595 0.172,-0.636 0.229,-0.665C0.286,-0.694 0.355,-0.709 0.436,-0.709C0.466,-0.709 0.495,-0.706 0.521,-0.701C0.539,-0.698 0.557,-0.694 0.575,-0.689L0.663,-0.664L0.664,-0.526L0.587,-0.526L0.563,-0.6C0.545,-0.609 0.527,-0.616 0.511,-0.62C0.487,-0.626 0.459,-0.63 0.429,-0.63C0.384,-0.63 0.346,-0.624 0.313,-0.613C0.28,-0.602 0.253,-0.586 0.232,-0.564C0.211,-0.542 0.195,-0.514 0.185,-0.482C0.174,-0.45 0.169,-0.412 0.168,-0.369C0.166,-0.3 0.176,-0.245 0.198,-0.202C0.223,-0.152 0.253,-0.119 0.288,-0.104C0.362,-0.071 0.453,-0.066 0.561,-0.088L0.561,-0.259L0.449,-0.286L0.459,-0.329L0.674,-0.329L0.674,-0.191Z" style="fill-rule:nonzero;"/>
            </g>
            <g transform="matrix(106.15,0,0,106.15,397.283,224.635)">
                <path d="M0.212,0.025C0.196,0.027 0.183,0.031 0.173,0.036C0.154,0.044 0.141,0.054 0.134,0.066C0.126,0.079 0.123,0.093 0.123,0.109C0.123,0.128 0.127,0.144 0.137,0.157C0.146,0.169 0.161,0.179 0.182,0.185C0.203,0.191 0.231,0.194 0.265,0.194C0.305,0.194 0.339,0.19 0.365,0.183C0.391,0.176 0.41,0.166 0.423,0.152C0.435,0.139 0.442,0.122 0.442,0.103C0.442,0.09 0.439,0.079 0.435,0.07C0.431,0.06 0.422,0.053 0.41,0.047C0.397,0.041 0.379,0.036 0.355,0.033C0.33,0.029 0.298,0.027 0.259,0.027C0.242,0.027 0.226,0.026 0.212,0.025ZM0.259,0.26C0.215,0.26 0.178,0.257 0.148,0.251C0.117,0.245 0.092,0.236 0.073,0.225C0.054,0.214 0.04,0.2 0.031,0.184C0.022,0.168 0.017,0.15 0.017,0.129C0.017,0.114 0.02,0.1 0.027,0.087C0.034,0.073 0.045,0.061 0.061,0.05C0.074,0.041 0.094,0.032 0.121,0.024C0.131,0.021 0.142,0.019 0.155,0.017C0.131,0.011 0.112,0.004 0.098,-0.006C0.083,-0.015 0.073,-0.027 0.067,-0.04C0.061,-0.053 0.058,-0.068 0.058,-0.084C0.058,-0.109 0.069,-0.131 0.091,-0.149C0.107,-0.162 0.131,-0.172 0.162,-0.179C0.156,-0.181 0.151,-0.183 0.146,-0.186C0.115,-0.201 0.091,-0.223 0.075,-0.251C0.058,-0.28 0.05,-0.313 0.05,-0.352C0.05,-0.392 0.058,-0.426 0.075,-0.455C0.092,-0.483 0.116,-0.505 0.147,-0.52C0.178,-0.535 0.214,-0.542 0.256,-0.542C0.284,-0.542 0.31,-0.539 0.333,-0.532C0.348,-0.531 0.363,-0.531 0.379,-0.532C0.401,-0.533 0.422,-0.534 0.442,-0.535C0.461,-0.537 0.479,-0.538 0.495,-0.539C0.51,-0.54 0.522,-0.541 0.531,-0.541C0.538,-0.541 0.543,-0.538 0.546,-0.532C0.549,-0.526 0.551,-0.517 0.551,-0.503C0.551,-0.468 0.547,-0.447 0.539,-0.439C0.53,-0.442 0.52,-0.446 0.508,-0.449C0.5,-0.451 0.489,-0.454 0.475,-0.458C0.462,-0.462 0.445,-0.465 0.425,-0.469C0.433,-0.458 0.44,-0.445 0.446,-0.431C0.455,-0.408 0.46,-0.382 0.46,-0.353C0.46,-0.313 0.452,-0.279 0.435,-0.251C0.418,-0.223 0.395,-0.201 0.364,-0.186C0.333,-0.171 0.297,-0.163 0.256,-0.163C0.233,-0.163 0.212,-0.165 0.193,-0.17C0.179,-0.167 0.169,-0.163 0.162,-0.158C0.153,-0.151 0.149,-0.14 0.149,-0.126C0.149,-0.117 0.15,-0.11 0.154,-0.103C0.157,-0.097 0.164,-0.091 0.175,-0.087C0.186,-0.083 0.203,-0.08 0.225,-0.078C0.247,-0.076 0.278,-0.074 0.316,-0.074C0.355,-0.073 0.388,-0.07 0.416,-0.064C0.444,-0.058 0.467,-0.049 0.485,-0.038C0.503,-0.026 0.516,-0.011 0.525,0.007C0.533,0.026 0.538,0.048 0.538,0.075C0.538,0.112 0.527,0.144 0.506,0.172C0.484,0.2 0.453,0.221 0.411,0.237C0.37,0.252 0.319,0.26 0.259,0.26ZM0.26,-0.23C0.289,-0.23 0.313,-0.239 0.332,-0.259C0.351,-0.278 0.361,-0.308 0.361,-0.35C0.361,-0.393 0.352,-0.425 0.335,-0.446C0.318,-0.467 0.291,-0.477 0.254,-0.477C0.224,-0.477 0.2,-0.467 0.18,-0.448C0.16,-0.429 0.15,-0.398 0.15,-0.357C0.15,-0.314 0.159,-0.282 0.177,-0.261C0.195,-0.24 0.223,-0.23 0.26,-0.23Z" style="fill-rule:nonzero;"/>
            </g>
            <g transform="matrix(106.15,0,0,106.15,482.256,224.635)">
                <path d="M0.373,0.129L0.176,-0.058C0.149,-0.083 0.126,-0.111 0.108,-0.14C0.089,-0.17 0.075,-0.202 0.066,-0.236C0.057,-0.27 0.052,-0.307 0.052,-0.348C0.052,-0.401 0.06,-0.45 0.076,-0.494C0.092,-0.538 0.116,-0.576 0.146,-0.608C0.175,-0.64 0.212,-0.665 0.254,-0.682C0.296,-0.7 0.343,-0.709 0.395,-0.709C0.447,-0.709 0.494,-0.7 0.536,-0.683C0.578,-0.665 0.614,-0.641 0.644,-0.609C0.674,-0.577 0.697,-0.539 0.713,-0.495C0.729,-0.451 0.737,-0.403 0.737,-0.35C0.737,-0.289 0.725,-0.234 0.702,-0.186C0.679,-0.138 0.647,-0.098 0.606,-0.068C0.565,-0.038 0.518,-0.019 0.464,-0.012C0.43,-0.008 0.394,-0.009 0.357,-0.016L0.489,0.086C0.51,0.102 0.529,0.116 0.544,0.126C0.56,0.136 0.575,0.143 0.589,0.148C0.603,0.153 0.618,0.156 0.634,0.157C0.65,0.158 0.669,0.158 0.692,0.156L0.692,0.211C0.681,0.213 0.669,0.215 0.658,0.217C0.647,0.219 0.635,0.221 0.622,0.222C0.609,0.223 0.594,0.224 0.576,0.224C0.555,0.224 0.536,0.222 0.519,0.219C0.502,0.216 0.486,0.21 0.471,0.203C0.456,0.196 0.441,0.186 0.425,0.174C0.409,0.162 0.392,0.147 0.373,0.129ZM0.399,-0.07C0.447,-0.07 0.487,-0.08 0.52,-0.101C0.553,-0.122 0.579,-0.152 0.596,-0.191C0.613,-0.23 0.622,-0.277 0.622,-0.332C0.622,-0.395 0.613,-0.448 0.595,-0.492C0.577,-0.536 0.551,-0.57 0.517,-0.593C0.482,-0.616 0.44,-0.628 0.391,-0.628C0.343,-0.628 0.302,-0.618 0.269,-0.597C0.235,-0.576 0.21,-0.547 0.193,-0.508C0.176,-0.468 0.167,-0.422 0.167,-0.367C0.167,-0.304 0.176,-0.25 0.194,-0.206C0.212,-0.162 0.238,-0.128 0.273,-0.105C0.307,-0.082 0.349,-0.07 0.399,-0.07Z" style="fill-rule:nonzero;"/>
            </g>
            <g transform="matrix(106.15,0,0,106.15,565.902,224.635)">
                <path d="M0.533,-0.412L0.533,0.181L0.613,0.204L0.613,0.26L0.341,0.26L0.341,0.204L0.43,0.182L0.43,-0.047C0.404,-0.011 0.348,0.009 0.261,0.012C0.214,0.012 0.174,0.001 0.142,-0.02C0.11,-0.041 0.086,-0.07 0.07,-0.108C0.054,-0.146 0.046,-0.191 0.046,-0.244C0.046,-0.305 0.058,-0.357 0.082,-0.402C0.105,-0.447 0.138,-0.482 0.179,-0.506C0.219,-0.53 0.266,-0.542 0.318,-0.542C0.349,-0.542 0.373,-0.54 0.389,-0.535C0.444,-0.519 0.483,-0.499 0.505,-0.477C0.522,-0.459 0.532,-0.437 0.533,-0.412ZM0.157,-0.268C0.157,-0.226 0.163,-0.191 0.175,-0.163C0.187,-0.135 0.204,-0.114 0.227,-0.101C0.25,-0.087 0.277,-0.081 0.31,-0.081C0.336,-0.081 0.363,-0.084 0.389,-0.092C0.403,-0.096 0.416,-0.1 0.43,-0.107L0.43,-0.35C0.43,-0.387 0.42,-0.417 0.402,-0.438C0.384,-0.46 0.353,-0.471 0.31,-0.471C0.277,-0.471 0.249,-0.463 0.227,-0.447C0.204,-0.431 0.187,-0.407 0.175,-0.378C0.163,-0.347 0.157,-0.311 0.157,-0.268Z" style="fill-rule:nonzero;"/>
            </g>
        </g>
        <g transform="matrix(3.4558,0,0,3.4558,-2.31355,-218.036)">
            <g transform="matrix(106.15,0,0,106.15,154.412,224.635)">
                <path d="M0.341,-0.27C0.309,-0.264 0.283,-0.258 0.262,-0.252C0.232,-0.243 0.209,-0.234 0.194,-0.225C0.178,-0.215 0.168,-0.204 0.163,-0.193C0.157,-0.181 0.155,-0.168 0.155,-0.153C0.155,-0.127 0.161,-0.108 0.175,-0.095C0.188,-0.082 0.209,-0.076 0.236,-0.076C0.256,-0.076 0.273,-0.08 0.289,-0.088C0.305,-0.096 0.317,-0.107 0.327,-0.121C0.336,-0.135 0.341,-0.15 0.341,-0.168L0.341,-0.27ZM0.339,-0.052C0.324,-0.039 0.313,-0.031 0.307,-0.028C0.301,-0.025 0.287,-0.017 0.266,-0.006C0.244,0.006 0.219,0.012 0.191,0.012C0.15,0.012 0.115,-0.002 0.084,-0.029C0.058,-0.051 0.045,-0.085 0.045,-0.131C0.045,-0.157 0.05,-0.18 0.059,-0.2C0.068,-0.221 0.085,-0.239 0.109,-0.256C0.133,-0.272 0.168,-0.287 0.215,-0.301C0.249,-0.311 0.291,-0.321 0.341,-0.331L0.341,-0.364C0.341,-0.4 0.333,-0.427 0.319,-0.445C0.304,-0.463 0.278,-0.472 0.241,-0.472C0.221,-0.472 0.205,-0.468 0.193,-0.461C0.186,-0.457 0.178,-0.448 0.169,-0.435C0.166,-0.431 0.162,-0.419 0.156,-0.401C0.152,-0.389 0.145,-0.381 0.134,-0.377C0.125,-0.373 0.114,-0.372 0.101,-0.372C0.083,-0.372 0.069,-0.375 0.06,-0.383C0.05,-0.391 0.046,-0.4 0.046,-0.412C0.046,-0.425 0.051,-0.438 0.063,-0.453C0.074,-0.468 0.09,-0.482 0.111,-0.495C0.131,-0.508 0.156,-0.519 0.184,-0.528C0.212,-0.537 0.242,-0.541 0.275,-0.541C0.316,-0.541 0.349,-0.535 0.374,-0.522C0.399,-0.509 0.416,-0.49 0.427,-0.467C0.438,-0.443 0.444,-0.414 0.444,-0.381L0.444,-0.13C0.444,-0.117 0.445,-0.106 0.449,-0.098C0.453,-0.09 0.458,-0.084 0.466,-0.08C0.473,-0.076 0.482,-0.074 0.493,-0.074C0.5,-0.074 0.508,-0.075 0.517,-0.077C0.525,-0.079 0.533,-0.081 0.542,-0.084L0.542,-0.039C0.522,-0.017 0.505,-0.004 0.491,-0C0.473,0.006 0.455,0.01 0.439,0.01C0.417,0.01 0.4,0.005 0.388,-0.004C0.373,-0.015 0.361,-0.025 0.352,-0.036L0.339,-0.052Z" style="fill-rule:nonzero;"/>
            </g>
        </g>
        <g transform="matrix(0.805418,0,0,0.805418,-72.8692,363.298)">
            <g transform="matrix(106.15,0,0,106.15,154.412,224.635)">
                <path d="M0.451,-0.62L0.26,-0.305L0.474,-0.305L0.451,-0.62ZM0.598,-0.066L0.671,-0.043L0.659,-0L0.391,-0L0.403,-0.043L0.491,-0.066L0.479,-0.237L0.219,-0.237L0.116,-0.066L0.189,-0.043L0.177,-0L-0.061,-0L-0.048,-0.043L0.033,-0.066L0.424,-0.693L0.545,-0.707L0.598,-0.066Z" style="fill-rule:nonzero;"/>
            </g>
            <g transform="matrix(106.15,0,0,106.15,230.044,224.635)">
                <path d="M0.442,-0.424C0.433,-0.44 0.423,-0.453 0.411,-0.461C0.395,-0.472 0.377,-0.477 0.358,-0.477C0.331,-0.477 0.307,-0.469 0.283,-0.453C0.259,-0.437 0.237,-0.417 0.217,-0.391C0.197,-0.365 0.179,-0.336 0.164,-0.306C0.149,-0.275 0.138,-0.245 0.13,-0.215C0.122,-0.185 0.118,-0.158 0.118,-0.135C0.118,-0.112 0.123,-0.095 0.135,-0.084C0.146,-0.073 0.161,-0.068 0.18,-0.068C0.197,-0.068 0.216,-0.076 0.239,-0.094C0.262,-0.111 0.285,-0.134 0.309,-0.163C0.333,-0.192 0.355,-0.225 0.375,-0.261C0.396,-0.297 0.412,-0.333 0.425,-0.37L0.442,-0.424ZM0.342,-0.047L0.41,-0.249L0.404,-0.249C0.372,-0.195 0.343,-0.151 0.317,-0.117C0.292,-0.083 0.269,-0.056 0.248,-0.038C0.228,-0.019 0.209,-0.006 0.192,0.001C0.174,0.008 0.157,0.011 0.14,0.011C0.116,0.011 0.095,0.006 0.077,-0.004C0.059,-0.013 0.044,-0.028 0.034,-0.047C0.023,-0.066 0.018,-0.089 0.018,-0.118C0.018,-0.152 0.024,-0.188 0.035,-0.226C0.046,-0.264 0.061,-0.302 0.081,-0.339C0.101,-0.376 0.124,-0.409 0.151,-0.44C0.178,-0.47 0.208,-0.495 0.241,-0.513C0.273,-0.531 0.307,-0.54 0.343,-0.54C0.373,-0.54 0.397,-0.533 0.418,-0.519C0.438,-0.505 0.451,-0.489 0.457,-0.47L0.512,-0.531L0.571,-0.531L0.428,-0.076C0.434,-0.076 0.44,-0.077 0.447,-0.078C0.465,-0.082 0.484,-0.088 0.505,-0.098C0.526,-0.108 0.548,-0.121 0.57,-0.138L0.59,-0.104C0.542,-0.058 0.502,-0.027 0.468,-0.012C0.434,0.004 0.407,0.012 0.385,0.012C0.364,0.012 0.349,0.007 0.342,-0.003C0.335,-0.012 0.335,-0.027 0.342,-0.047Z" style="fill-rule:nonzero;"/>
            </g>
            <g transform="matrix(106.15,0,0,106.15,319.688,224.635)">
                <path d="M0.426,-0.077C0.428,-0.077 0.442,-0.078 0.465,-0.08C0.472,-0.081 0.478,-0.082 0.485,-0.084L0.536,-0.259L0.451,-0.284L0.463,-0.329L0.72,-0.328L0.699,-0.258L0.655,-0.103L0.633,-0.021C0.603,-0.009 0.561,0 0.505,0.007C0.472,0.011 0.437,0.013 0.4,0.013C0.326,0.013 0.265,0.001 0.217,-0.023C0.169,-0.046 0.132,-0.079 0.109,-0.121C0.085,-0.163 0.073,-0.213 0.073,-0.27C0.073,-0.321 0.079,-0.369 0.093,-0.414C0.106,-0.459 0.126,-0.5 0.152,-0.536C0.178,-0.572 0.209,-0.604 0.247,-0.63C0.285,-0.656 0.328,-0.676 0.377,-0.69C0.425,-0.704 0.479,-0.711 0.538,-0.711C0.562,-0.711 0.584,-0.709 0.606,-0.707C0.64,-0.704 0.692,-0.688 0.762,-0.661L0.731,-0.461L0.661,-0.461L0.645,-0.593C0.631,-0.6 0.618,-0.605 0.603,-0.608C0.579,-0.614 0.554,-0.617 0.527,-0.617C0.489,-0.617 0.454,-0.611 0.423,-0.601C0.392,-0.59 0.365,-0.575 0.342,-0.555C0.319,-0.535 0.299,-0.512 0.283,-0.484C0.267,-0.457 0.255,-0.426 0.247,-0.392C0.239,-0.358 0.235,-0.322 0.235,-0.283C0.235,-0.236 0.243,-0.197 0.259,-0.167C0.274,-0.136 0.296,-0.114 0.325,-0.099C0.353,-0.084 0.387,-0.077 0.426,-0.077Z" style="fill-rule:nonzero;"/>
            </g>
            <g transform="matrix(106.15,0,0,106.15,398.981,224.635)">
                <path d="M0.121,0.035C0.116,0.036 0.111,0.037 0.106,0.039C0.091,0.043 0.079,0.049 0.07,0.056C0.061,0.063 0.054,0.072 0.05,0.081C0.046,0.091 0.044,0.101 0.044,0.114C0.044,0.13 0.049,0.144 0.059,0.157C0.069,0.169 0.086,0.178 0.109,0.185C0.132,0.192 0.164,0.196 0.203,0.196C0.234,0.196 0.26,0.192 0.281,0.186C0.302,0.179 0.318,0.17 0.329,0.159C0.339,0.147 0.345,0.134 0.345,0.12C0.345,0.111 0.342,0.102 0.338,0.096C0.334,0.089 0.326,0.082 0.314,0.077C0.302,0.071 0.285,0.066 0.262,0.061C0.24,0.056 0.211,0.051 0.175,0.045C0.155,0.042 0.137,0.039 0.121,0.035ZM0.244,-0.235C0.258,-0.235 0.271,-0.238 0.284,-0.246C0.296,-0.253 0.307,-0.263 0.316,-0.276C0.325,-0.289 0.333,-0.303 0.34,-0.319C0.346,-0.335 0.351,-0.351 0.355,-0.368C0.358,-0.384 0.36,-0.4 0.36,-0.416C0.36,-0.439 0.355,-0.456 0.347,-0.466C0.339,-0.476 0.326,-0.481 0.309,-0.481C0.295,-0.481 0.281,-0.477 0.269,-0.47C0.257,-0.462 0.246,-0.452 0.237,-0.44C0.227,-0.427 0.219,-0.413 0.213,-0.397C0.206,-0.381 0.201,-0.365 0.198,-0.349C0.195,-0.332 0.193,-0.316 0.193,-0.3C0.193,-0.276 0.197,-0.259 0.205,-0.249C0.213,-0.239 0.226,-0.234 0.244,-0.235ZM0.164,0.26C0.118,0.26 0.08,0.257 0.05,0.251C0.019,0.245 -0.005,0.237 -0.023,0.226C-0.041,0.215 -0.054,0.202 -0.061,0.188C-0.069,0.173 -0.073,0.157 -0.073,0.14C-0.073,0.119 -0.067,0.1 -0.056,0.085C-0.045,0.07 -0.026,0.057 0.001,0.046C0.023,0.037 0.052,0.03 0.089,0.024C0.084,0.022 0.08,0.021 0.076,0.019C0.054,0.007 0.039,-0.006 0.031,-0.021C0.023,-0.036 0.019,-0.053 0.019,-0.072C0.019,-0.099 0.027,-0.121 0.043,-0.138C0.059,-0.155 0.081,-0.167 0.11,-0.176C0.12,-0.178 0.131,-0.181 0.142,-0.183C0.14,-0.184 0.137,-0.185 0.135,-0.186C0.109,-0.199 0.09,-0.216 0.078,-0.238C0.066,-0.26 0.06,-0.285 0.06,-0.312C0.06,-0.343 0.066,-0.373 0.078,-0.401C0.089,-0.429 0.106,-0.455 0.128,-0.477C0.15,-0.499 0.177,-0.517 0.209,-0.53C0.24,-0.543 0.276,-0.549 0.316,-0.549C0.346,-0.549 0.373,-0.546 0.396,-0.539C0.427,-0.538 0.457,-0.538 0.484,-0.54C0.516,-0.541 0.544,-0.543 0.568,-0.546C0.591,-0.548 0.608,-0.549 0.618,-0.549C0.622,-0.549 0.625,-0.548 0.628,-0.546C0.631,-0.544 0.633,-0.541 0.633,-0.536C0.633,-0.529 0.631,-0.52 0.627,-0.51C0.623,-0.499 0.617,-0.489 0.611,-0.479C0.604,-0.468 0.597,-0.459 0.59,-0.452C0.583,-0.445 0.576,-0.441 0.57,-0.441C0.566,-0.441 0.561,-0.443 0.554,-0.446C0.547,-0.449 0.538,-0.453 0.528,-0.458C0.517,-0.463 0.505,-0.468 0.49,-0.473C0.485,-0.474 0.48,-0.476 0.474,-0.478C0.486,-0.456 0.492,-0.431 0.492,-0.404C0.492,-0.373 0.487,-0.343 0.475,-0.315C0.463,-0.286 0.446,-0.261 0.424,-0.239C0.402,-0.216 0.375,-0.199 0.343,-0.186C0.312,-0.173 0.276,-0.167 0.237,-0.167C0.214,-0.167 0.194,-0.168 0.176,-0.172C0.159,-0.17 0.147,-0.167 0.139,-0.162C0.127,-0.155 0.121,-0.145 0.121,-0.133C0.121,-0.127 0.122,-0.121 0.126,-0.117C0.13,-0.112 0.137,-0.108 0.147,-0.104C0.157,-0.099 0.172,-0.096 0.192,-0.092C0.212,-0.089 0.238,-0.085 0.271,-0.08C0.323,-0.072 0.364,-0.062 0.394,-0.048C0.424,-0.034 0.445,-0.018 0.457,0.002C0.469,0.021 0.476,0.044 0.476,0.07C0.476,0.097 0.47,0.122 0.458,0.146C0.447,0.169 0.429,0.189 0.404,0.206C0.379,0.223 0.346,0.236 0.307,0.246C0.267,0.255 0.22,0.26 0.164,0.26Z" style="fill-rule:nonzero;"/>
            </g>
            <g transform="matrix(106.15,0,0,106.15,483.636,224.635)">
                <path d="M0.274,0.109L0.141,-0.057C0.124,-0.08 0.111,-0.102 0.1,-0.124C0.09,-0.145 0.082,-0.167 0.078,-0.19C0.073,-0.212 0.071,-0.236 0.071,-0.262C0.071,-0.31 0.077,-0.357 0.09,-0.401C0.103,-0.446 0.121,-0.487 0.146,-0.524C0.17,-0.562 0.2,-0.595 0.234,-0.623C0.268,-0.651 0.306,-0.672 0.349,-0.688C0.392,-0.703 0.438,-0.711 0.487,-0.711C0.551,-0.711 0.604,-0.7 0.648,-0.678C0.691,-0.656 0.724,-0.625 0.747,-0.584C0.769,-0.543 0.781,-0.494 0.781,-0.437C0.781,-0.387 0.774,-0.338 0.76,-0.293C0.746,-0.247 0.726,-0.205 0.7,-0.167C0.673,-0.129 0.641,-0.097 0.603,-0.072C0.565,-0.046 0.523,-0.028 0.475,-0.018C0.435,-0.009 0.391,-0.008 0.345,-0.014L0.433,0.071C0.451,0.088 0.466,0.101 0.481,0.111C0.495,0.121 0.509,0.129 0.523,0.134C0.537,0.139 0.553,0.142 0.57,0.143C0.588,0.144 0.609,0.143 0.634,0.142L0.618,0.209C0.606,0.212 0.594,0.215 0.582,0.217C0.569,0.219 0.556,0.221 0.542,0.222C0.528,0.223 0.511,0.224 0.494,0.224C0.457,0.224 0.426,0.22 0.401,0.212C0.376,0.204 0.354,0.192 0.334,0.175C0.314,0.158 0.294,0.136 0.274,0.109ZM0.229,-0.242C0.229,-0.19 0.24,-0.151 0.263,-0.124C0.286,-0.096 0.32,-0.083 0.366,-0.083C0.392,-0.083 0.416,-0.088 0.439,-0.098C0.461,-0.108 0.482,-0.121 0.501,-0.139C0.52,-0.156 0.537,-0.177 0.552,-0.201C0.567,-0.224 0.58,-0.25 0.59,-0.278C0.6,-0.306 0.608,-0.335 0.614,-0.365C0.619,-0.395 0.622,-0.425 0.622,-0.456C0.622,-0.507 0.611,-0.547 0.588,-0.574C0.565,-0.601 0.531,-0.615 0.486,-0.615C0.459,-0.615 0.435,-0.61 0.412,-0.6C0.389,-0.59 0.368,-0.576 0.349,-0.559C0.33,-0.541 0.313,-0.521 0.298,-0.497C0.283,-0.473 0.271,-0.448 0.261,-0.42C0.25,-0.392 0.242,-0.363 0.237,-0.333C0.232,-0.303 0.229,-0.273 0.229,-0.242Z" style="fill-rule:nonzero;"/>
            </g>
            <g transform="matrix(106.15,0,0,106.15,567.706,224.635)">
                <path d="M0.444,-0.421C0.437,-0.432 0.43,-0.44 0.422,-0.446C0.409,-0.455 0.394,-0.46 0.377,-0.46C0.357,-0.46 0.337,-0.453 0.317,-0.438C0.297,-0.424 0.278,-0.405 0.26,-0.381C0.242,-0.357 0.226,-0.33 0.212,-0.302C0.198,-0.274 0.187,-0.246 0.179,-0.218C0.171,-0.191 0.167,-0.166 0.167,-0.146C0.167,-0.128 0.171,-0.115 0.18,-0.106C0.189,-0.098 0.201,-0.093 0.217,-0.094C0.232,-0.093 0.249,-0.1 0.268,-0.114C0.286,-0.128 0.305,-0.146 0.324,-0.17C0.342,-0.193 0.36,-0.219 0.376,-0.248C0.393,-0.277 0.406,-0.308 0.416,-0.339L0.444,-0.421ZM0.28,0.18L0.4,-0.215L0.394,-0.215C0.365,-0.166 0.34,-0.126 0.317,-0.096C0.294,-0.066 0.273,-0.043 0.254,-0.027C0.235,-0.011 0.216,-0 0.199,0.005C0.181,0.011 0.163,0.014 0.145,0.014C0.121,0.014 0.1,0.008 0.08,-0.002C0.06,-0.012 0.045,-0.028 0.033,-0.048C0.021,-0.069 0.015,-0.095 0.015,-0.126C0.015,-0.162 0.02,-0.2 0.032,-0.239C0.043,-0.275 0.059,-0.313 0.08,-0.351C0.095,-0.379 0.12,-0.412 0.154,-0.451C0.17,-0.47 0.194,-0.489 0.226,-0.508C0.256,-0.525 0.288,-0.536 0.323,-0.539C0.475,-0.55 0.553,-0.5 0.558,-0.387L0.434,0.178L0.494,0.201L0.481,0.26L0.185,0.26L0.198,0.201L0.28,0.18Z" style="fill-rule:nonzero;"/>
            </g>
        </g>
    </g>
</svg>
